SplineFontDB: 3.2
FontName: AnalysisMonoRegular
FullName: Analysis Mono Regular
FamilyName: AnalysisMono
Weight: Regular
Copyright: Copyright (c) 2024, Bastien
UComments: "2024-9-12: Created with FontForge (http://fontforge.org)"
Version: 001.000
ItalicAngle: 0
UnderlinePosition: -102
UnderlineWidth: 51
Ascent: 800
Descent: 224
InvalidEm: 0
LayerCount: 2
Layer: 0 0 "Arri+AOgA-re" 1
Layer: 1 0 "Avant" 0
XUID: [1021 575 -248357885 15362797]
StyleMap: 0x0000
FSType: 0
OS2Version: 0
OS2_WeightWidthSlopeOnly: 0
OS2_UseTypoMetrics: 1
CreationTime: 1726144911
ModificationTime: 1733433538
PfmFamily: 49
TTFWeight: 400
TTFWidth: 5
LineGap: 192
VLineGap: 0
OS2TypoAscent: 800
OS2TypoAOffset: 0
OS2TypoDescent: -224
OS2TypoDOffset: 0
OS2TypoLinegap: 192
OS2WinAscent: 800
OS2WinAOffset: 0
OS2WinDescent: 224
OS2WinDOffset: 0
HheadAscent: 800
HheadAOffset: 0
HheadDescent: 224
HheadDOffset: 0
OS2FamilyClass: 2057
OS2Vendor: 'PfEd'
MarkAttachClasses: 1
DEI: 91125
LangName: 1033
Encoding: UnicodeBmp
Compacted: 1
UnicodeInterp: none
NameList: AGL For New Fonts
DisplaySize: -72
AntiAlias: 1
FitToEm: 1
WinInfo: 0 25 4
BeginPrivate: 0
EndPrivate
Grid
-1024 1094 m 0
 2048 1094 l 1024
-80.9483642578 1312 m 0
 -80.9483642578 -736 l 1024
-638 1312 m 0
 -638 -736 l 1024
-208.625 1312 m 0
 -208.625 -736 l 1024
-1024 928 m 0
 2048 928 l 1024
-1024 832.5 m 0
 2048 832.5 l 1024
-1024 -192 m 0
 2048 -192 l 1024
-66.5001220703 1344 m 0
 -66.5001220703 -704 l 1024
-1024 1160.49987793 m 0
 2048 1160.49987793 l 1024
-1024 739 m 0
 2048 739 l 1024
-1024 747 m 0
 2048 747 l 1024
-1024 507 m 0
 2048 507 l 1024
-1024 -8 m 0
 2048 -8 l 1024
-1018 515 m 0
 2054 515 l 1024
EndSplineSet
BeginChars: 65536 150

StartChar: a
Encoding: 97 97 0
Width: 600
VWidth: 1000
Flags: W
HStem: -8 60<175.191 338.098> 0 21G<414.897 475> 240 60<178.302 403> 455 60<191.36 356.699>
VStem: 69 72<83.5006 208.178> 403 72<114.663 240 300 405.265> 419 56<0 34.944>
LayerCount: 2
Back
SplineSet
405 100 m 5x7a
 536 100 l 5
 536 0 l 5
 405 0 l 5
 405 100 l 5x7a
351 232 m 5xbc
 329 239 304 243 278 243 c 4
 198 243 153 203 153 154 c 5
 153 121 179 100 234 100 c 5
 299 100 351 129 351 190 c 5
 351 232 l 5xbc
279 331 m 5
 304 331 329 328 351 321 c 5
 351 332 l 5xbc
 351 380 329 428 251 428 c 5
 195 428 148 415 122 396 c 5
 69 477 l 5
 104 504 170 531 252 531 c 5
 399 531 471 432 471 294 c 5
 471 0 l 5x7a
 351 0 l 5x7c
 351 59 l 5
 335 23 278 -8 219 -8 c 5
 100 -8 36 53 36 149 c 5
 36 261 139 331 279 331 c 5
EndSplineSet
Fore
SplineSet
403 300 m 0xbc
 403 325 l 1
 403 414 352 455 277 455 c 0
 221 455 178 434 147 393 c 1
 94 428 l 1
 138 488 191 515 273 515 c 0
 385 515 475 460 475 321 c 1xbc
 475 274 l 2
 475 0 l 1
 419 0 l 1x7a
 403 78 l 1
 376 22 319 -8 254 -8 c 0
 128 -8 69 51 69 144 c 0
 69 247 136 300 314 300 c 0
 403 300 l 0xbc
141 144 m 0
 141 82 185 52 258 52 c 1
 343 52 403 114 403 186 c 1
 403 240 l 4
 316 240 l 0
 191 240 141 221 141 144 c 0
EndSplineSet
Validated: 1
EndChar

StartChar: e
Encoding: 101 101 1
Width: 600
Flags: W
HStem: -8 56<201.878 377.681> 225 60<129 420> 459 56<196.608 353.084>
VStem: 57 72<131.499 225 285 379.268>
LayerCount: 2
Fore
SplineSet
281 459 m 1
 170 459 129 375 129 285 c 1
 420 285 l 1
 420 389 366 459 281 459 c 1
281 515 m 0
 409 515 484 423 492 285 c 1
 464 225 l 1
 129 225 l 1
 129 122 183 48 285 48 c 0
 353 48 401 76 433 119 c 1
 480 80 l 1
 444 28 378 -8 286 -8 c 0
 150 -8 57 88 57 255 c 0
 57 412 139 515 281 515 c 0
EndSplineSet
EndChar

StartChar: g
Encoding: 103 103 2
Width: 600
Flags: W
HStem: -192 55<165.113 403.83> 12 60<161 228 233 414.985> 24 48<135 226> 448 59<188.015 345.365> 456 59<443.237 531>
VStem: 54 77<-105.263 -10.3099> 89 65<84.6465 156.417 271.221 414.251> 380 72<271.769 413.35> 439 72<-105.923 -10.4607>
LayerCount: 2
Back
Fore
SplineSet
391 461 m 1x88
 431 499 465 515 531 515 c 1
 531 456 l 1
 484 456 450 449 429 419 c 1
 391 461 l 1x88
82 350 m 0
 82 449 154 507 264 507 c 0
 377 507 452 449 452 350 c 0x91
 452 244 375 184 262 184 c 0
 143 184 82 254 82 350 c 0
154 346 m 0x93
 154 272 189 239 268 239 c 0
 340 239 380 272 380 346 c 0
 380 410 340 448 268 448 c 0
 189 448 154 410 154 346 c 0x93
354 72 m 1xc480
 449 72 511 15 511 -60 c 0
 511 -157 414 -192 282 -192 c 0
 117 -192 54 -141 54 -58 c 1
 54 13 125 72 213 72 c 1
 354 72 l 1xc480
354 12 m 1
 228 12 l 1
 161 12 131 -20 131 -58 c 1
 131 -107 174 -137 285 -137 c 0
 379 -137 439 -113 439 -64 c 0
 439 -12 399 12 354 12 c 1
286 185 m 1
 196 178 154 156 154 116 c 0
 154 86 192 72 233 72 c 0xc2
 226 24 l 0
 135 24 89 63 89 115 c 0xa2
 89 183 170 213 266 224 c 1
 286 185 l 1
EndSplineSet
Validated: 5
EndChar

StartChar: i
Encoding: 105 105 3
Width: 600
Flags: W
HStem: 0 60<296 508> 42 18<224 296> 447 60<60 224> 447 33<224 296> 635 102<235.456 318.544>
VStem: 224 72<60 480> 226 102<644.456 727.544>
LayerCount: 2
Back
SplineSet
309 675 m 4xf0
 309 714 342 747 381 747 c 4
 420 747 453 714 453 675 c 4
 453 636 420 603 381 603 c 4
 342 603 309 636 309 675 c 4xf0
316 187 m 5xe8
 316 523 l 5xe4
 444 523 l 5
 444 197 l 5
 444 147 465 104 524 104 c 5
 553 104 586 117 603 142 c 5
 692 69 l 5
 656 24 592 -8 525 -8 c 5
 392 -8 316 67 316 187 c 5xe8
196 523 m 5
 436 523 l 5
 436 419 l 5
 196 419 l 5
 196 523 l 5
EndSplineSet
Fore
SplineSet
224 0 m 5x8c
 224 60 l 5x4c
 508 60 l 5
 508 0 l 5
 296 0 l 5
 224 0 l 5x8c
224 42 m 5
 224 480 l 5
 296 480 l 5x5c
 296 42 l 5
 224 42 l 5
224 507 m 5x2c
 296 507 l 5x2c
 296 447 l 5x1c
 60 447 l 5
 60 507 l 5
 224 507 l 5x2c
226 686 m 0x0a
 226 714 249 737 277 737 c 0
 305 737 328 714 328 686 c 0
 328 658 305 635 277 635 c 0
 249 635 226 658 226 686 c 0x0a
EndSplineSet
Validated: 5
EndChar

StartChar: l
Encoding: 108 108 4
Width: 600
Flags: W
HStem: 0 60<252 490> 42 18<180 252> 679 60<0 180> 679 33<180 252>
VStem: 180 72<60 712>
LayerCount: 2
Back
SplineSet
128 198 m 1xe0
 128 739 l 1xd0
 248 739 l 1
 248 204 l 1
 248 154 287 112 348 112 c 1
 398 112 436 120 466 160 c 1
 549 81 l 1
 510 20 439 -8 344 -8 c 1
 236 -8 128 60 128 198 c 1xe0
0 739 m 1
 220 739 l 1
 220 635 l 1
 0 635 l 1
 0 739 l 1
EndSplineSet
Fore
SplineSet
180 0 m 1x88
 180 60 l 1x48
 490 60 l 1
 490 0 l 1
 252 0 l 1
 180 0 l 1x88
180 42 m 1
 180 712 l 1
 252 712 l 1x58
 252 42 l 1
 180 42 l 1
0 679 m 5x28
 0 739 l 1
 180 739 l 1
 252 739 l 1x28
 252 679 l 5x18
 0 679 l 5x28
EndSplineSet
Validated: 5
EndChar

StartChar: m
Encoding: 109 109 5
Width: 600
Flags: W
HStem: 0 21G<40 112 233 305 432 504> 455 60<131.237 219.406 321.161 417.422> 487 20G<40 103.805>
VStem: 40 72<0 407> 233 72<0 442> 432 72<0 441.755>
LayerCount: 2
Back
SplineSet
280 466 m 1xc6
 293 502 337 531 387 531 c 1
 457 531 516 469 516 405 c 1
 516 0 l 1
 404 0 l 1
 404 391 l 1
 404 416 385 431 364 431 c 1
 336 431 316 420 301 392 c 1
 280 466 l 1xc6
108 466 m 5xce
 115 500 160 531 203 531 c 1
 255 531 285 498 293 458 c 1
 325 458 l 1
 325 0 l 1
 213 0 l 1
 213 390 l 1
 213 415 199 431 171 431 c 1
 147 431 120 418 106 389 c 5
 108 466 l 5xce
24 523 m 5xb6
 136 523 l 5
 136 0 l 5
 24 0 l 5
 24 523 l 5xb6
EndSplineSet
Fore
SplineSet
287 455 m 1xdc
 302 485 332 515 394 515 c 1
 459 515 504 457 504 393 c 1
 504 0 l 25
 432 0 l 25
 432 379 l 1
 432 420 416 455 371 455 c 1
 343 455 313 434 305 406 c 1
 287 455 l 1xdc
106 456 m 1
 117 488 148 515 191 515 c 1
 243 515 285 482 293 442 c 1
 305 442 l 1
 305 0 l 1
 233 0 l 1
 233 386 l 1
 233 427 212 455 176 455 c 1
 145 455 122 437 112 407 c 1
 106 456 l 1
40 507 m 1xbc
 96 507 l 1
 112 466 l 1
 112 0 l 1
 40 0 l 1
 40 507 l 1xbc
EndSplineSet
Validated: 5
EndChar

StartChar: z
Encoding: 122 122 7
Width: 600
Flags: W
HStem: 0 64<156 487> 443 64<72 487>
LayerCount: 2
Back
SplineSet
359 419 m 1
 503 419 l 1
 208 104 l 1
 56 104 l 5
 359 419 l 1
56 104 m 5
 503 104 l 1
 503 0 l 1
 56 0 l 5
 56 104 l 5
56 523 m 5
 503 523 l 1
 503 419 l 1
 56 419 l 5
 56 523 l 5
EndSplineSet
Fore
SplineSet
403 443 m 5
 487 443 l 5
 156 64 l 5
 72 64 l 5
 403 443 l 5
72 64 m 5
 487 64 l 5
 487 0 l 5
 72 0 l 5
 72 64 l 5
72 507 m 5
 487 507 l 5
 487 443 l 5
 72 443 l 5
 72 507 l 5
EndSplineSet
Validated: 5
EndChar

StartChar: n
Encoding: 110 110 8
Width: 600
Flags: W
HStem: 0 21G<72 144 408 480> 455 60<210.399 364.031> 487 20G<72.9606 132.706>
VStem: 72 72<0 403 439 469.464> 73 55<476.536 507> 408 72<0 406.452>
LayerCount: 2
Back
SplineSet
63 523 m 5xb8
 182 523 l 5
 182 0 l 5
 62 0 l 5
 63 523 l 5xb8
130 410 m 5
 148 447 187 531 303 531 c 4
 430 531 506 438 506 327 c 5
 506 0 l 5
 386 0 l 5
 386 333 l 6
 386 390 339 427 288 427 c 4xd8
 222 427 182 386 182 329 c 5
 130 410 l 5
EndSplineSet
Fore
SplineSet
73 507 m 1xac
 128 507 l 1xac
 144 439 l 1
 144 0 l 1
 72 0 l 1xb4
 73 507 l 1xac
126 403 m 1
 138 454 209 515 299 515 c 0
 426 515 480 424 480 318 c 1
 480 0 l 1
 408 0 l 1
 408 316 l 2
 408 404 371 455 290 455 c 4
 192 455 144 380 144 306 c 1xd4
 126 403 l 1
EndSplineSet
Validated: 5
EndChar

StartChar: s
Encoding: 115 115 9
Width: 600
Flags: W
HStem: -8 58<181.017 381.709> 455 60<199.327 387.191>
VStem: 96 72<321.487 427.178> 411 72<77.4583 182.477>
LayerCount: 2
Back
SplineSet
278 531 m 1
 376 531 452 506 499 457 c 1
 416 383 l 1
 389 413 338 427 280 427 c 1
 214 427 188 407 188 389 c 1
 188 350 231 339 326 311 c 0
 451 274 499 209 499 132 c 1
 499 34 399 -8 295 -8 c 1
 162 -8 90 23 37 73 c 1
 108 152 l 1
 149 111 203 96 284 96 c 1
 353 96 379 114 379 142 c 1
 379 188 333 202 224 234 c 0
 111 267 76 326 76 394 c 1
 76 468 146 531 278 531 c 1
EndSplineSet
Fore
SplineSet
286 515 m 1
 367 515 414 500 470 453 c 1
 435 400 l 1
 387 440 346 455 288 455 c 1
 224 454 168 432 168 382 c 1
 168 326 194 299 311 277 c 0
 424 256 483 209 483 132 c 1
 483 38 399 -8 295 -8 c 1
 180 -8 131 14 73 74 c 1
 124 120 l 1
 155 80 201 50 282 50 c 1
 357 50 411 67 411 133 c 1
 411 193 350 212 253 231 c 4
 125 256 96 316 96 378 c 1
 96 452 154 515 286 515 c 1
EndSplineSet
Validated: 1
EndChar

StartChar: q
Encoding: 113 113 10
Width: 600
Flags: W
HStem: -8 60<183.871 344.411> 455 60<170.763 339.072> 487 20G<409.286 471>
VStem: 29 72<144.406 377.687> 399 72<-192 411 451 476.088> 415 56<481.912 507>
LayerCount: 2
Back
SplineSet
388 77 m 1xd8
 373 26 325 -8 245 -8 c 1
 114 -8 12 99 12 252 c 5
 12 433 123 531 249 531 c 1
 334 531 382 483 388 433 c 1
 363 301 l 1
 363 373 328 419 261 419 c 1
 202 419 140 390 140 255 c 5
 140 140 205 104 257 104 c 1
 316 104 363 148 363 216 c 1
 388 77 l 1xd8
491 -184 m 1
 363 -184 l 1
 363 523 l 1
 491 523 l 1xb8
 491 -184 l 1
EndSplineSet
Fore
SplineSet
424 96 m 1xd8
 408 56 367 -8 257 -8 c 1
 133 -8 29 85 29 252 c 1
 29 439 131 515 252 515 c 1
 364 515 408 457 428 411 c 1
 399 323 l 1
 399 399 343 455 257 455 c 1
 158 455 101 398 101 255 c 1
 101 125 169 52 261 52 c 1
 345 52 399 100 399 178 c 1
 424 96 l 1xd8
471 -192 m 5
 399 -192 l 5
 399 451 l 1xb8
 415 507 l 1
 471 507 l 1xb4
 471 -192 l 5
EndSplineSet
EndChar

StartChar: f
Encoding: 102 102 11
Width: 600
Flags: W
HStem: 0 21G<190 262> 447 60<120.112 480> 447 44<34 103.888> 690 57<314.297 502.757>
VStem: 190 72<0 635.333>
LayerCount: 2
Back
SplineSet
157 112 m 1
 447 112 l 1
 447 0 l 1
 157 0 l 1
 157 112 l 1
107 523 m 1
 561 523 l 1
 561 411 l 1
 107 411 l 1
 107 523 l 1
243 0 m 5
 243 543 l 5
 243 675 335 755 456 755 c 1
 527 755 584 733 625 693 c 1
 551 604 l 1
 530 627 492 643 457 643 c 1
 403 643 363 607 363 545 c 1
 363 0 l 1
 243 0 l 5
EndSplineSet
Fore
SplineSet
385 690 m 1x98
 304 690 262 628 262 547 c 1
 262 0 l 25
 190 0 l 25
 190 539 l 1
 190 668 265 747 381 747 c 1
 422 747 476 738 520 720 c 1
 500 667 l 1
 460 686 431 690 385 690 c 1x98
34 491 m 1xb8
 190 507 l 1
 480 507 l 1
 480 447 l 1
 385 447 l 1xd8
 34 447 l 1
 34 491 l 1xb8
EndSplineSet
EndChar

StartChar: o
Encoding: 111 111 12
Width: 600
Flags: W
HStem: -8 60<196.709 353.291> 455 60<196.709 353.291>
VStem: 47 72<137.059 366.143> 431 72<136.707 365.778>
LayerCount: 2
Back
SplineSet
158 259 m 0
 158 142 218 96 284 96 c 0
 350 96 410 142 410 259 c 4
 410 378 350 427 284 427 c 0
 218 427 158 378 158 259 c 0
38 261 m 0
 38 456 161 531 284 531 c 0
 407 531 530 456 530 261 c 4
 530 68 407 -8 284 -8 c 0
 161 -8 38 68 38 261 c 0
EndSplineSet
Fore
SplineSet
119 252 m 0
 119 118 185 52 275 52 c 0
 365 52 431 118 431 251 c 0
 431 386 365 455 275 455 c 0
 185 455 119 386 119 252 c 0
47 254 m 0
 47 436 152 515 275 515 c 0
 398 515 503 436 503 253 c 0
 503 72 398 -8 275 -8 c 0
 152 -8 47 72 47 254 c 0
EndSplineSet
Validated: 1
EndChar

StartChar: c
Encoding: 99 99 13
Width: 600
Flags: W
HStem: -8 60<207.432 380.948> 455 60<207.496 380.477>
VStem: 57 72<135.107 366.651>
LayerCount: 2
Back
SplineSet
317 531 m 1
 397 531 478 504 528 447 c 1
 446 371 l 1
 413 408 366 419 320 419 c 1
 225 419 171 354 171 257 c 1
 171 164 230 104 316 104 c 1
 374 104 421 126 447 169 c 1
 538 101 l 1
 499 37 417 -8 313 -8 c 1
 158 -8 51 117 51 256 c 1
 51 390 150 531 317 531 c 1
EndSplineSet
Fore
SplineSet
292 515 m 1
 387 515 443 480 490 420 c 1
 441 378 l 1
 405 424 364 455 294 455 c 1
 193 455 129 388 129 249 c 1
 129 114 197 52 291 52 c 5
 360 52 406 80 446 137 c 1
 500 97 l 1
 453 38 398 -8 288 -8 c 1
 150 -8 57 102 57 248 c 1
 57 415 153 515 292 515 c 1
EndSplineSet
Validated: 1
EndChar

StartChar: x
Encoding: 120 120 14
Width: 600
Flags: W
HStem: 0 21G<30 132.581 399.419 502> 487 20G<30 132.653 399.347 502>
LayerCount: 2
Back
SplineSet
255 523 m 1
 383 523 l 1
 503 333 l 1
 623 523 l 5
 751 523 l 1
 579 262 l 1
 751 0 l 1
 623 0 l 5
 503 191 l 1
 383 0 l 1
 255 0 l 1
 427 262 l 1
 255 523 l 1
EndSplineSet
Fore
SplineSet
30 507 m 1
 118 507 l 1
 266 305 l 1
 414 507 l 5
 502 507 l 5
 310 254 l 1
 502 0 l 5
 414 0 l 5
 266 203 l 1
 118 0 l 1
 30 0 l 1
 222 254 l 1
 30 507 l 1
EndSplineSet
Validated: 1
EndChar

StartChar: p
Encoding: 112 112 15
Width: 600
Flags: W
HStem: -8 60<182.589 347.44> 455 60<187.928 356.237>
VStem: 56 72<451 476.088> 56 56<481.912 507> 426 72<139.904 373.18>
LayerCount: 2
Back
SplineSet
143 77 m 1xd8
 168 216 l 1
 168 148 223 104 282 104 c 1
 334 104 407 140 407 255 c 5
 407 390 337 419 278 419 c 1
 211 419 168 373 168 301 c 1
 143 433 l 1
 149 483 205 531 290 531 c 1
 416 531 527 433 527 252 c 5
 527 99 425 -8 294 -8 c 1
 214 -8 158 26 143 77 c 1xd8
48 -184 m 1
 48 523 l 1
 168 523 l 1xb8
 168 -184 l 1
 48 -184 l 1
EndSplineSet
Fore
SplineSet
103 96 m 1xe8
 119 56 160 -8 270 -8 c 1
 394 -8 498 85 498 252 c 1
 498 439 396 515 275 515 c 1
 163 515 119 457 99 411 c 1
 128 323 l 1
 128 399 184 455 270 455 c 1
 369 455 426 394 426 251 c 1
 426 121 358 52 266 52 c 1
 182 52 128 100 128 178 c 1
 103 96 l 1xe8
56 -192 m 5xd8
 128 -192 l 5
 128 451 l 1xe8
 112 507 l 1
 56 507 l 1
 56 -192 l 5xd8
EndSplineSet
EndChar

StartChar: h
Encoding: 104 104 16
Width: 600
Flags: W
HStem: 0 21G<72 144 420 492> 455 60<206.342 369.029> 719 20G<72.9729 144>
VStem: 72 72<0 322 413 739> 420 72<0 401.353>
LayerCount: 2
Back
SplineSet
61 739 m 1
 180 739 l 1
 180 0 l 1
 60 0 l 1
 61 739 l 1
153 444 m 1
 169 479 216 531 306 531 c 0
 433 531 504 440 504 334 c 1
 504 0 l 1
 384 0 l 1
 384 332 l 2
 384 386 339 427 283 427 c 0
 228 427 180 400 180 343 c 1
 153 444 l 1
EndSplineSet
Fore
SplineSet
73 739 m 1
 144 739 l 1
 144 0 l 1
 72 0 l 1
 73 739 l 1
128 413 m 1
 137 448 193 515 299 515 c 0
 426 515 492 424 492 318 c 1
 492 0 l 1
 420 0 l 1
 420 316 l 2
 420 404 371 455 290 455 c 4
 196 455 144 392 144 322 c 1
 128 413 l 1
EndSplineSet
Validated: 5
EndChar

StartChar: b
Encoding: 98 98 17
Width: 600
Flags: W
HStem: -8 60<205.928 370.084> 0 21G<74 135.714> 455 60<203.407 368.69> 719 20G<74 146>
VStem: 74 72<30.912 56 96 739> 74 56<0 25.088> 444 72<135.438 371.924>
LayerCount: 2
Back
SplineSet
143 446 m 1xbc
 158 497 214 531 294 531 c 1
 425 531 527 424 527 271 c 5
 527 90 416 -8 290 -8 c 1
 205 -8 149 40 143 90 c 1
 168 222 l 1
 168 150 211 104 278 104 c 1
 337 104 407 133 407 268 c 5
 407 383 334 419 282 419 c 1
 223 419 168 375 168 307 c 1
 143 446 l 1xbc
48 739 m 1
 168 739 l 1
 168 0 l 1
 48 0 l 1x7c
 48 739 l 1
EndSplineSet
Fore
SplineSet
121 411 m 1xba
 137 451 182 515 292 515 c 1
 416 515 516 430 516 263 c 1
 516 76 414 -8 293 -8 c 1
 181 -8 137 50 117 96 c 1
 146 184 l 1
 146 108 202 52 288 52 c 5
 387 52 444 117 444 260 c 1
 444 390 380 455 288 455 c 1
 204 455 146 407 146 329 c 1
 121 411 l 1xba
74 739 m 1
 146 739 l 1
 146 56 l 1x7a
 130 0 l 1
 74 0 l 1x76
 74 739 l 1
EndSplineSet
Validated: 5
EndChar

StartChar: d
Encoding: 100 100 18
Width: 600
Flags: W
HStem: -8 60<188.916 353.072> 0 21G<423.286 485> 455 60<190.31 355.593> 719 20G<413 485>
VStem: 43 72<135.438 371.924> 413 72<30.912 56 96 739> 429 56<0 25.088>
LayerCount: 2
Back
SplineSet
404 446 m 1xbc
 379 307 l 1
 379 375 324 419 265 419 c 1
 213 419 140 383 140 268 c 1
 140 133 210 104 269 104 c 1
 336 104 379 150 379 222 c 1
 404 90 l 1
 398 40 342 -8 257 -8 c 1
 131 -8 20 90 20 271 c 1
 20 424 122 531 253 531 c 1
 333 531 389 497 404 446 c 1xbc
499 739 m 1
 499 0 l 5
 379 0 l 5x7c
 379 739 l 1
 499 739 l 1
EndSplineSet
Fore
SplineSet
438 411 m 1xbc
 413 329 l 1
 413 407 355 455 271 455 c 1
 179 455 115 390 115 260 c 1
 115 117 172 52 271 52 c 1
 357 52 413 108 413 184 c 1
 442 96 l 1
 422 50 378 -8 266 -8 c 1
 145 -8 43 76 43 263 c 1
 43 430 143 515 267 515 c 1
 377 515 422 451 438 411 c 1xbc
485 739 m 1
 485 0 l 1
 429 0 l 1x7a
 413 56 l 1
 413 739 l 1
 485 739 l 1
EndSplineSet
Validated: 5
EndChar

StartChar: j
Encoding: 106 106 19
Width: 600
Flags: W
HStem: -192 60<122.383 309.153> 447 60<131 370> 447 52<370 442> 635 102<349.456 432.544>
VStem: 340 102<644.456 727.544> 370 72<-62.4094 499>
LayerCount: 2
Back
SplineSet
319 681 m 0xf0
 319 720 352 753 391 753 c 0
 430 753 463 720 463 681 c 0
 463 642 430 609 391 609 c 0
 352 609 319 642 319 681 c 0xf0
342 36 m 1xe8
 342 523 l 1xe4
 470 523 l 1
 470 48 l 1
 470 -105 362 -192 224 -192 c 1
 129 -192 57 -158 22 -108 c 1
 112 -39 l 1
 133 -66 182 -80 231 -80 c 1
 304 -80 342 -42 342 36 c 1xe8
147 523 m 1
 442 523 l 1
 442 419 l 1
 147 419 l 1
 147 523 l 1
EndSplineSet
Fore
SplineSet
340 686 m 0x98
 340 714 363 737 391 737 c 0
 419 737 442 714 442 686 c 0
 442 658 419 635 391 635 c 0
 363 635 340 658 340 686 c 0x98
370 44 m 1xb4
 370 499 l 1
 442 499 l 1
 442 44 l 1
 442 -84 370 -192 235 -192 c 1
 139 -192 70 -161 38 -118 c 1
 84 -76 l 1
 115 -118 165 -132 234 -132 c 1
 319 -132 370 -70 370 44 c 1xb4
370 507 m 1xd4
 442 507 l 1xd4
 442 447 l 1xb4
 131 447 l 1
 131 507 l 1
 370 507 l 1xd4
EndSplineSet
Validated: 5
EndChar

StartChar: k
Encoding: 107 107 20
Width: 600
Flags: W
HStem: 0 21G<82 154 400.071 507> 487 20G<359.456 477> 719 20G<82 154>
VStem: 82 72<0 176 246 739>
LayerCount: 2
Back
SplineSet
301 327 m 1
 550 0 l 1
 406 0 l 5
 191 283 l 5
 301 327 l 1
121 282 m 1
 376 523 l 1
 522 523 l 1
 188 212 l 1
 121 282 l 1
68 747 m 1
 188 747 l 1
 188 0 l 1
 68 0 l 1
 68 747 l 1
EndSplineSet
Fore
SplineSet
252 267 m 1
 311 229 l 1
 507 0 l 1
 417 0 l 17
 191 267 l 1
 252 267 l 1
136 246 m 1
 378 507 l 1
 477 507 l 1
 152 176 l 1
 136 246 l 1
82 739 m 1
 154 739 l 1
 154 0 l 1
 82 0 l 1
 82 739 l 1
EndSplineSet
Validated: 5
EndChar

StartChar: r
Encoding: 114 114 21
Width: 600
Flags: W
HStem: 0 64<112.888 272.696> 0 48<61 103.112 283.304 329> 443 64<112.384 176> 452 63<331.753 502.716> 459 48<34 97.616>
VStem: 155 72<0 352 389 441.864> 155 21<443 507>
LayerCount: 2
Back
Fore
SplineSet
414 515 m 5x14
 456 515 482 511 514 503 c 5
 500 440 l 5
 475 447 456 452 414 452 c 5
 318 452 227 364 227 252 c 5
 203 352 l 5
 213 439 314 515 414 515 c 5x14
61 48 m 5x44
 155 64 l 5
 227 64 l 5x84
 329 48 l 5
 329 0 l 5
 61 0 l 5
 61 48 l 5x44
34 507 m 5x0a
 176 507 l 5
 176 443 l 5x22
 34 459 l 5
 34 507 l 5x0a
155 507 m 5
 211 507 l 5
 227 389 l 5
 227 0 l 5
 155 0 l 5x8c
 155 507 l 5
EndSplineSet
Validated: 5
EndChar

StartChar: exclam
Encoding: 33 33 22
Width: 600
Flags: W
HStem: -8 118<178.37 271.63> 719 20G<181 269>
VStem: 166 118<3.89313 98.1069> 181 88<290.104 739> 189 72<238 686.896>
LayerCount: 2
Back
SplineSet
153 64 m 0xe0
 153 103 186 136 225 136 c 0
 264 136 297 103 297 64 c 0
 297 25 264 -8 225 -8 c 0
 186 -8 153 25 153 64 c 0xe0
157 739 m 1
 293 739 l 1
 277 238 l 1
 173 238 l 1xd0
 157 739 l 1
EndSplineSet
Fore
SplineSet
181 739 m 1xd0
 269 739 l 5xd0
 261 238 l 1
 189 238 l 1xc8
 181 739 l 1xd0
166 51 m 0xe0
 166 83 189 110 225 110 c 0
 261 110 284 83 284 51 c 0
 284 19 261 -8 225 -8 c 0
 189 -8 166 19 166 51 c 0xe0
EndSplineSet
Validated: 1
EndChar

StartChar: quotedbl
Encoding: 34 34 23
Width: 600
Flags: W
HStem: 498 51<86.3457 106.322 310.346 330.322> 682 118<117.37 168.976 341.37 392.976>
VStem: 189 34<709 732.786> 413 34<709 732.786>
LayerCount: 2
Back
SplineSet
316 728 m 0
 316 767 349 800 388 800 c 0
 427 800 460 767 460 728 c 0
 460 689 427 656 388 656 c 0
 349 656 316 689 316 728 c 0
388 800 m 1
 446 800 474 745 474 692 c 1
 474 579 382 490 314 472 c 1
 276 545 l 1
 341 565 394 617 394 681 c 1
 394 751 l 1
 388 800 l 1
92 728 m 0
 92 767 125 800 164 800 c 0
 203 800 236 767 236 728 c 0
 236 689 203 656 164 656 c 0
 125 656 92 689 92 728 c 0
164 800 m 1
 222 800 250 745 250 692 c 1
 250 579 158 490 90 472 c 1
 52 545 l 1
 117 565 170 617 170 681 c 1
 170 751 l 1
 164 800 l 1
EndSplineSet
Fore
SplineSet
388 800 m 5
 446 800 474 754 474 701 c 5
 474 602 382 516 314 498 c 5
 288 549 l 5
 353 569 413 642 413 706 c 5
 394 777 l 5
 388 800 l 5
329 741 m 4
 329 773 352 800 388 800 c 4
 424 800 447 773 447 741 c 4
 447 709 424 682 388 682 c 4
 352 682 329 709 329 741 c 4
164 800 m 5
 222 800 250 754 250 701 c 5
 250 602 158 516 90 498 c 5
 64 549 l 5
 129 569 189 642 189 706 c 5
 170 777 l 5
 164 800 l 5
105 741 m 4
 105 773 128 800 164 800 c 4
 200 800 223 773 223 741 c 4
 223 709 200 682 164 682 c 4
 128 682 105 709 105 741 c 4
EndSplineSet
Validated: 5
EndChar

StartChar: numbersign
Encoding: 35 35 24
Width: 600
Flags: W
HStem: 0 21G<32 113.386 245 326.386> 212 60<16 536> 463 60<16 536> 719 20G<225.614 307 438.614 520>
LayerCount: 2
Back
SplineSet
16 0 m 5
 215 739 l 5
 323 739 l 1
 124 0 l 1
 16 0 l 5
229 0 m 1
 428 739 l 1
 536 739 l 1
 337 0 l 1
 229 0 l 1
16 296 m 1
 536 296 l 1
 536 192 l 1
 16 192 l 1
 16 296 l 1
16 543 m 1
 536 543 l 1
 536 439 l 1
 16 439 l 1
 16 543 l 1
EndSplineSet
Fore
SplineSet
32 0 m 1
 231 739 l 1
 307 739 l 1
 108 0 l 1
 32 0 l 1
245 0 m 1
 444 739 l 1
 520 739 l 1
 321 0 l 1
 245 0 l 1
16 272 m 5
 536 272 l 5
 536 212 l 1
 16 212 l 1
 16 272 l 5
16 523 m 1
 536 523 l 1
 536 463 l 1
 16 463 l 1
 16 523 l 1
EndSplineSet
Validated: 5
EndChar

StartChar: dollar
Encoding: 36 36 25
Width: 600
Flags: W
HStem: -8 60<191.969 373.746> 687 60<200.366 373.579>
VStem: 54 66<122.072 152.389> 76 72<498.095 638.144> 253 72<-136 875> 430 72<106.21 257.734>
LayerCount: 2
Back
SplineSet
282 747 m 1
 368 747 456 717 509 657 c 1
 420 581 l 1
 388 613 348 635 283 635 c 1
 226 635 181 608 181 564 c 1
 181 511 211 478 312 427 c 0
 465 350 522 280 522 186 c 1
 522 50 394 -8 270 -8 c 1
 152 -8 70 35 26 83 c 1
 112 164 l 1
 157 122 199 104 270 104 c 1
 348 104 394 133 394 190 c 1
 394 266 302 311 223 348 c 0
 115 399 60 472 60 575 c 1
 60 674 157 747 282 747 c 1
237 875 m 1
 341 875 l 5
 341 -136 l 5
 237 -136 l 1
 237 875 l 1
EndSplineSet
Fore
SplineSet
282 747 m 1xdc
 368 747 441 724 498 625 c 1
 439 592 l 1
 402 655 361 687 283 687 c 1
 196 687 148 634 148 573 c 1xdc
 148 496 188 466 307 410 c 0
 410 362 502 294 502 190 c 1
 502 54 406 -8 282 -8 c 1
 164 -8 87 46 54 150 c 1
 120 172 l 1xec
 138 102 189 52 282 52 c 1
 378 52 430 101 430 185 c 1
 430 276 349 320 248 367 c 0
 132 421 76 479 76 575 c 1
 76 680 167 747 282 747 c 1xdc
253 875 m 1
 325 875 l 1
 325 -136 l 1
 253 -136 l 1
 253 875 l 1
EndSplineSet
Validated: 5
EndChar

StartChar: percent
Encoding: 37 37 26
Width: 600
Flags: W
HStem: -8 64<366.247 449.538> 248 64<366.512 447.484> 427 64<86.2474 169.538> 683 64<86.512 167.484>
VStem: 0 71<503.949 667.853> 184 72<504.086 669.565> 280 71<68.949 232.853> 464 72<69.0856 234.565>
LayerCount: 2
Back
SplineSet
408 232 m 0xb3c0
 380 232 364 195 364 151 c 24
 364 108 381 72 408 72 c 0
 435 72 452 109 452 152 c 28
 452 195 435 232 408 232 c 0xb3c0
408 312 m 24
 488 312 540 232 540 152 c 28
 540 72 488 -8 408 -8 c 24
 328 -8 276 72 276 152 c 24
 276 232 328 312 408 312 c 24
4 0 m 1x77c0
 412 739 l 1
 528 739 l 1
 120 0 l 1
 4 0 l 1x77c0
128 667 m 0x3bc0
 100 667 84 630 84 586 c 24
 84 543 101 507 128 507 c 0
 155 507 172 544 172 587 c 24
 172 630 155 667 128 667 c 0x3bc0
128 747 m 24
 208 747 260 667 260 587 c 24
 260 507 208 427 128 427 c 24
 48 427 -4 507 -4 587 c 24
 -4 667 48 747 128 747 c 24
EndSplineSet
Fore
SplineSet
128 683 m 24
 84 683 71 640 71 586 c 0
 71 530 85 491 128 491 c 24
 171 491 184 531 184 587 c 0
 184 640 171 683 128 683 c 24
128 747 m 24
 208 747 256 683 256 587 c 0
 256 491 208 427 128 427 c 24
 48 427 0 491 0 587 c 0
 0 683 48 747 128 747 c 24
53 -37 m 1
 423 800 l 1
 488 776 l 1
 118 -61 l 1
 53 -37 l 1
408 248 m 24
 364 248 351 205 351 151 c 0
 351 95 365 56 408 56 c 24
 451 56 464 96 464 152 c 0
 464 205 451 248 408 248 c 24
408 312 m 24
 488 312 536 248 536 152 c 0
 536 56 488 -8 408 -8 c 24
 328 -8 280 56 280 152 c 0
 280 248 328 312 408 312 c 24
EndSplineSet
Validated: 1
EndChar

StartChar: ampersand
Encoding: 38 38 27
Width: 600
Flags: W
HStem: -8 60<175.653 343.482> 687 60<198.005 337.607>
VStem: 24 72<135.45 342.431> 87 72<508.954 648.407> 440 72<168.825 412>
LayerCount: 2
Back
SplineSet
155 476 m 1xf2
 218 397 l 1
 162 363 136 320 136 237 c 1
 136 160 185 96 270 96 c 1
 353 96 417 154 417 244 c 1xf2
 417 328 380 380 348 408 c 9
 348 488 l 1
 532 488 l 25
 532 392 l 1xe4
 463 392 l 17
 485 368 521 318 521 244 c 1
 521 106 422 -8 271 -8 c 1
 140 -8 24 98 24 237 c 1
 24 341 69 424 155 476 c 1xf2
266 747 m 1
 343 747 401 717 436 662 c 1
 360 600 l 1
 337 635 306 651 266 651 c 1
 228 651 199 626 199 586 c 1
 199 531 218 493 251 450 c 1
 556 53 l 1
 467 -6 l 1
 161 395 l 1
 115 456 87 510 87 593 c 1xe8
 87 677 151 747 266 747 c 1
EndSplineSet
Fore
SplineSet
440 412 m 1xe8
 512 412 l 1
 512 305 l 1
 512 115 408 -8 257 -8 c 1
 126 -8 24 83 24 237 c 1
 24 341 80 419 160 469 c 1
 190 425 l 1
 134 391 96 332 96 237 c 1
 96 126 157 52 257 52 c 1
 367 52 440 136 440 305 c 1
 440 412 l 1xe8
266 747 m 1
 343 747 396 720 442 652 c 1
 386 613 l 1
 359 653 323 687 269 687 c 1
 201 687 159 639 159 593 c 1
 159 526 191 491 230 440 c 1
 558 35 l 1
 501 -8 l 1
 177 395 l 1
 138 442 87 510 87 593 c 1xd8
 87 667 151 747 266 747 c 1
EndSplineSet
Validated: 5
EndChar

StartChar: quotesingle
Encoding: 39 39 28
Width: 600
Flags: W
HStem: 498 51<147.346 167.322> 682 118<178.37 229.976>
VStem: 250 34<709 732.786>
LayerCount: 2
Back
SplineSet
153 728 m 0
 153 767 186 800 225 800 c 0
 264 800 297 767 297 728 c 0
 297 689 264 656 225 656 c 0
 186 656 153 689 153 728 c 0
225 800 m 1
 283 800 311 745 311 692 c 1
 311 579 219 490 151 472 c 1
 113 545 l 1
 178 565 231 617 231 681 c 1
 231 751 l 1
 225 800 l 1
EndSplineSet
Fore
SplineSet
225 800 m 5
 283 800 311 754 311 701 c 5
 311 602 219 516 151 498 c 5
 125 549 l 5
 190 569 250 642 250 706 c 5
 231 777 l 5
 225 800 l 5
166 741 m 4
 166 773 189 800 225 800 c 4
 261 800 284 773 284 741 c 4
 284 709 261 682 225 682 c 4
 189 682 166 709 166 741 c 4
EndSplineSet
Validated: 5
EndChar

StartChar: parenleft
Encoding: 40 40 29
Width: 600
Flags: W
VStem: 168 72<212.233 515.175>
LayerCount: 2
Back
SplineSet
408 747 m 5
 458 665 l 5
 369 627 288 539 288 363 c 4
 288 192 372 118 458 77 c 5
 412 -8 l 5
 299 42 168 169 168 363 c 4
 168 561 295 696 408 747 c 5
EndSplineSet
Fore
SplineSet
416 800 m 5
 450 750 l 5
 325 686 240 571 240 363 c 4
 240 160 341 33 450 -19 c 5
 420 -72 l 5
 286 -13 168 153 168 363 c 4
 168 577 284 739 416 800 c 5
EndSplineSet
Validated: 1
EndChar

StartChar: parenright
Encoding: 41 41 30
Width: 600
Flags: W
VStem: 338 72<212.825 515.767>
LayerCount: 2
Back
SplineSet
170 747 m 1
 283 696 410 561 410 363 c 0
 410 169 279 42 166 -8 c 1
 120 77 l 1
 206 118 290 192 290 363 c 0
 290 539 209 627 120 665 c 1
 170 747 l 1
EndSplineSet
Fore
SplineSet
162 -72 m 1
 128 -22 l 1
 253 42 338 157 338 365 c 0
 338 568 237 695 128 747 c 1
 158 800 l 1
 292 741 410 575 410 365 c 0
 410 151 294 -11 162 -72 c 1
EndSplineSet
Validated: 1
EndChar

StartChar: asterisk
Encoding: 42 42 31
Width: 600
Flags: W
VStem: 262 64<638.213 787>
LayerCount: 2
Back
SplineSet
440 489 m 1
 363 432 l 1
 303 513 l 1
 278 594 l 1
 310 618 l 1
 380 570 l 1
 440 489 l 1
148 489 m 1
 208 570 l 1
 278 618 l 1
 310 594 l 1
 285 513 l 1
 225 432 l 1
 148 489 l 1
137 706 m 1
 233 674 l 1
 300 623 l 1
 288 585 l 1
 203 583 l 1
 107 614 l 1
 137 706 l 1
451 706 m 1
 481 614 l 1
 385 583 l 1
 300 585 l 1
 288 623 l 1
 355 674 l 1
 451 706 l 1
246 787 m 1
 342 787 l 1
 342 686 l 1
 314 606 l 1
 274 606 l 1
 246 686 l 1
 246 787 l 1
EndSplineSet
Fore
SplineSet
163 477 m 1
 221 560 l 1
 278 618 l 1
 310 594 l 1
 274 522 l 1
 215 440 l 1
 163 477 l 1
425 477 m 1
 373 440 l 1
 314 522 l 1
 278 594 l 1
 310 618 l 1
 367 560 l 1
 425 477 l 1
131 690 m 1
 227 659 l 1
 300 623 l 1
 288 585 l 1
 208 598 l 1
 112 629 l 1
 131 690 l 1
457 690 m 1
 476 629 l 1
 380 598 l 1
 300 585 l 1
 288 623 l 1
 361 659 l 1
 457 690 l 1
262 787 m 1
 326 787 l 1
 326 686 l 1
 314 606 l 1
 274 606 l 1
 262 686 l 1
 262 787 l 1
EndSplineSet
Validated: 5
EndChar

StartChar: plus
Encoding: 43 43 32
Width: 600
Flags: W
HStem: 248 64<67 477>
VStem: 239 64<72 488>
LayerCount: 2
Back
SplineSet
215 488 m 1
 327 488 l 1
 327 72 l 5
 215 72 l 5
 215 488 l 1
67 332 m 1
 477 332 l 1
 477 228 l 1
 67 228 l 1
 67 332 l 1
EndSplineSet
Fore
SplineSet
239 488 m 5
 303 488 l 5
 303 72 l 5
 239 72 l 5
 239 488 l 5
67 312 m 5
 477 312 l 5
 477 248 l 5
 67 248 l 5
 67 312 l 5
EndSplineSet
Validated: 5
EndChar

StartChar: comma
Encoding: 44 44 33
Width: 600
Flags: W
HStem: -192 51<147.346 167.322> -8 118<178.37 229.976>
VStem: 250 34<19 42.7857>
LayerCount: 2
Back
SplineSet
153 64 m 4x60
 153 103 186 136 225 136 c 4xa0
 264 136 297 103 297 64 c 4
 297 25 264 -8 225 -8 c 4
 186 -8 153 25 153 64 c 4x60
225 136 m 5
 283 136 311 81 311 28 c 5
 311 -85 219 -174 151 -192 c 5
 113 -119 l 5
 178 -99 231 -47 231 17 c 5
 231 87 l 5
 225 136 l 5
EndSplineSet
Fore
SplineSet
225 110 m 5
 283 110 311 64 311 11 c 5
 311 -88 219 -174 151 -192 c 5
 125 -141 l 5
 190 -121 250 -48 250 16 c 5
 231 87 l 5
 225 110 l 5
166 51 m 4
 166 83 189 110 225 110 c 4
 261 110 284 83 284 51 c 4
 284 19 261 -8 225 -8 c 4
 189 -8 166 19 166 51 c 4
EndSplineSet
Validated: 5
EndChar

StartChar: hyphen
Encoding: 45 45 34
Width: 600
Flags: W
HStem: 248 64<67 477>
LayerCount: 2
Back
SplineSet
67 332 m 1
 477 332 l 1
 477 228 l 1
 67 228 l 1
 67 332 l 1
EndSplineSet
Fore
SplineSet
67 312 m 5
 477 312 l 5
 477 248 l 5
 67 248 l 5
 67 312 l 5
EndSplineSet
Validated: 1
EndChar

StartChar: period
Encoding: 46 46 35
Width: 600
Flags: W
HStem: -8 118<178.37 271.63>
VStem: 166 118<3.89313 98.1069>
LayerCount: 2
Back
SplineSet
153 64 m 0
 153 103 186 136 225 136 c 0
 264 136 297 103 297 64 c 0
 297 25 264 -8 225 -8 c 0
 186 -8 153 25 153 64 c 0
EndSplineSet
Fore
SplineSet
166 51 m 4
 166 83 189 110 225 110 c 4
 261 110 284 83 284 51 c 4
 284 19 261 -8 225 -8 c 4
 189 -8 166 19 166 51 c 4
EndSplineSet
Validated: 1
EndChar

StartChar: slash
Encoding: 47 47 36
Width: 600
Flags: W
LayerCount: 2
Back
SplineSet
40 -8 m 5
 155 -8 l 5
 155 -61 l 5
 40 -61 l 5
 40 -8 l 5
69 0 m 1
 400 747 l 1
 536 739 l 1
 205 -8 l 1
 69 0 l 1
EndSplineSet
Fore
SplineSet
85 -37 m 5
 455 800 l 5
 520 776 l 5
 150 -61 l 5
 85 -37 l 5
EndSplineSet
Validated: 1
EndChar

StartChar: zero
Encoding: 48 48 37
Width: 600
Flags: W
HStem: -7 60<208.21 355.843> 293 159<237.088 326.912> 688 60<208.21 355.843>
VStem: 45 72<184.886 558.188> 221 122<308.097 436.987> 447 73<184.886 558.188>
LayerCount: 2
Back
SplineSet
164 367 m 4
 164 169 212 112 286 112 c 0
 360 112 415 169 415 367 c 0
 415 574 360 627 286 627 c 0
 212 627 164 574 164 367 c 4
225 372 m 0
 225 425 253 451 286 451 c 0
 319 451 347 425 347 372 c 0
 347 318 319 292 286 292 c 0
 253 292 225 318 225 372 c 0
36 369 m 4
 36 660 163 747 286 747 c 0
 409 747 536 660 536 369 c 0
 536 87 409 -8 286 -8 c 0
 163 -8 36 87 36 369 c 4
EndSplineSet
Fore
SplineSet
117 368 m 0
 117 128 192 53 282 53 c 4
 372 53 447 128 447 368 c 0
 447 621 372 688 282 688 c 0
 192 688 117 621 117 368 c 0
45 370 m 0
 45 669 159 748 282 748 c 0
 405 748 520 669 520 370 c 0
 520 78 405 -7 282 -7 c 0
 159 -7 45 78 45 370 c 0
221 373 m 0
 221 426 249 452 282 452 c 0
 315 452 343 426 343 373 c 0
 343 319 315 293 282 293 c 0
 249 293 221 319 221 373 c 0
EndSplineSet
Validated: 1
EndChar

StartChar: one
Encoding: 49 49 38
Width: 600
Flags: W
HStem: 0 64<90 262 334 487> 719 20G<224.254 334>
VStem: 262 72<66 669>
LayerCount: 2
Back
SplineSet
72 634 m 1
 270 739 l 25
 372 739 l 25
 372 106 l 25
 513 106 l 25
 513 0 l 25
 84 0 l 25
 84 104 l 25
 252 104 l 1
 252 613 l 1
 119 539 l 1
 72 634 l 1
EndSplineSet
Fore
SplineSet
55 597 m 1
 252 739 l 1
 334 739 l 1
 334 66 l 25
 487 66 l 25
 487 0 l 25
 90 0 l 25
 90 64 l 25
 262 64 l 1
 262 669 l 1
 90 547 l 1
 55 597 l 1
EndSplineSet
Validated: 1
EndChar

StartChar: two
Encoding: 50 50 39
Width: 600
Flags: W
HStem: 0 66<154 489> 687 60<177.753 354.8>
VStem: 70 84<66 130.738> 410 72<465.63 632.694>
LayerCount: 2
Back
SplineSet
281 747 m 0
 410 747 506 656 506 550 c 0
 506 461 464 391 372 292 c 1
 196 104 l 1
 513 104 l 5
 513 0 l 5
 58 0 l 1
 58 122 l 1
 297 374 l 1
 345 427 386 467 386 544 c 0
 386 598 344 643 278 643 c 0
 210 643 172 618 140 582 c 1
 65 654 l 1
 101 698 165 747 281 747 c 0
EndSplineSet
Fore
SplineSet
70 31 m 1
 70 101 108 230 272 344 c 0
 364 408 410 472 410 558 c 0
 410 634 358 687 275 687 c 0
 193 687 152 660 125 605 c 1
 71 637 l 1
 118 718 182 747 274 747 c 0
 407 747 482 660 482 554 c 0
 482 431 406 356 302 283 c 0
 176 195 154 110 154 66 c 5
 489 66 l 5
 489 0 l 1
 70 0 l 1
 70 31 l 1
EndSplineSet
Validated: 1
EndChar

StartChar: three
Encoding: 51 51 40
Width: 600
Flags: W
HStem: -8 60<162.882 358.641> 368 64<206 344.844> 687 60<163.52 336.585>
VStem: 396 72<480.099 630.035> 426 72<122.314 301.45>
LayerCount: 2
Back
Fore
SplineSet
61 651 m 1xf0
 110 715 172 747 254 747 c 1
 395 747 468 661 468 555 c 1xf0
 468 472 429 431 372 402 c 1
 438 387 498 310 498 215 c 1
 498 83 414 -8 266 -8 c 1
 150 -8 86 30 38 102 c 1
 94 140 l 1
 126 85 180 52 266 52 c 1
 368 52 425 108 426 217 c 1xe8
 426 308 368 368 266 368 c 9
 206 368 l 25
 206 432 l 25
 269 432 l 17
 336 432 396 473 396 554 c 1
 396 638 333 687 254 687 c 1
 185 687 145 661 114 615 c 1
 61 651 l 1xf0
EndSplineSet
Validated: 1
EndChar

StartChar: four
Encoding: 52 52 41
Width: 600
Flags: W
HStem: 0 21G<331 403> 163 64<114 518> 727 20G<319.808 403>
VStem: 331 72<0 747>
LayerCount: 2
Back
SplineSet
223 747 m 5
 327 723 l 1
 152 247 l 1
 32 247 l 1
 223 747 l 5
32 247 m 1
 529 247 l 1
 529 143 l 1
 32 143 l 1
 32 247 l 1
307 498 m 1
 427 498 l 1
 427 0 l 1
 307 0 l 1
 307 498 l 1
EndSplineSet
Fore
SplineSet
331 747 m 1
 385 726 l 5
 114 227 l 1
 40 227 l 1
 331 747 l 1
40 227 m 1
 518 227 l 1
 518 163 l 1
 40 163 l 1
 40 227 l 1
331 747 m 1
 403 747 l 1
 403 0 l 1
 331 0 l 1
 331 747 l 1
EndSplineSet
Validated: 5
EndChar

StartChar: five
Encoding: 53 53 42
Width: 600
Flags: W
HStem: -8 58<153.169 339.785> 440 59<168.778 349.954> 675 64<99 455>
VStem: 426 72<142.022 358.705>
LayerCount: 2
Back
SplineSet
264 515 m 1
 396 515 496 414 496 259 c 0
 496 114 395 -8 235 -8 c 1
 121 -8 60 28 8 80 c 1
 90 157 l 17
 122 118 154 96 234 96 c 1
 318 96 376 158 376 255 c 0
 376 359 318 420 238 420 c 1
 200 420 169 408 148 390 c 1
 99 421 l 1
 123 472 196 515 264 515 c 1
61 739 m 1
 181 739 l 1
 148 390 l 1
 36 390 l 1
 61 739 l 1
65 739 m 1
 449 739 l 5
 449 635 l 5
 65 635 l 1
 65 739 l 1
EndSplineSet
Fore
SplineSet
269 499 m 1
 397 499 498 410 498 255 c 0
 498 110 409 -8 255 -8 c 1
 130 -8 79 39 45 89 c 1
 98 128 l 1
 129 80 166 50 255 50 c 1
 355 50 426 122 426 251 c 0
 426 369 367 440 267 440 c 1
 202 440 168 422 142 398 c 1
 101 424 l 17
 130 470 185 499 269 499 c 1
95 739 m 1
 167 739 l 1
 142 398 l 1
 73 433 l 1
 95 739 l 1
99 739 m 1
 455 739 l 1
 455 675 l 5
 99 675 l 5
 99 739 l 1
EndSplineSet
Validated: 5
EndChar

StartChar: six
Encoding: 54 54 43
Width: 600
Flags: W
HStem: -8 60<199.424 362.183> 438 61<203.295 362.143> 727 20G<342.5 386.231>
VStem: 65 70<127.328 361.212> 431 72<128.385 359.162>
LayerCount: 2
Back
SplineSet
270 411 m 0
 189 411 140 347 140 250 c 0
 140 160 181 94 270 94 c 0
 347 94 396 157 396 248 c 0
 396 340 349 411 270 411 c 0
284 507 m 0
 428 507 516 389 516 248 c 0
 516 97 415 -8 270 -8 c 0
 83 -8 20 130 20 252 c 0
 20 356 69 442 136 537 c 0
 169 584 232 673 283 747 c 1
 414 747 l 1
 361 674 324 624 250 524 c 0
 239 509 224 499 202 488 c 1
 227 499 258 507 284 507 c 0
EndSplineSet
Fore
SplineSet
283 438 m 0
 181 438 135 358 135 257 c 0
 135 128 173 52 283 52 c 0
 394 52 431 137 431 248 c 0
 431 351 391 438 283 438 c 0
292 499 m 0
 429 499 503 401 503 248 c 0
 503 97 424 -8 283 -8 c 0
 126 -8 65 104 65 255 c 0
 65 341 65.6139649712 462.304446284 169 593 c 0
 222 660 308 720 377 747 c 1
 401 695 l 1
 335 664 280.13918613 623.87306391 240 580 c 0
 197 533 167 491 154 437 c 1
 194 493 246 499 292 499 c 0
EndSplineSet
Validated: 1
EndChar

StartChar: seven
Encoding: 55 55 44
Width: 600
Flags: W
HStem: -8 21G<173.609 238.511> 679 27<47 119> 719 20G<47 489>
VStem: 47 72<531 679>
LayerCount: 2
Back
SplineSet
27 739 m 1
 493 739 l 1
 493 635 l 1
 27 635 l 1
 27 739 l 1
368 635 m 1
 493 635 l 1
 219 0 l 5
 99 0 l 5
 368 635 l 1
EndSplineSet
Fore
SplineSet
47 706 m 1
 119 706 l 1
 119 531 l 1
 47 531 l 1
 47 706 l 1
47 739 m 1
 489 739 l 1
 489 679 l 1
 47 679 l 1
 47 739 l 1
413 679 m 1
 489 679 l 1
 231 -8 l 5
 165 15 l 5
 413 679 l 1
EndSplineSet
Validated: 5
EndChar

StartChar: eight
Encoding: 56 56 45
Width: 600
Flags: W
HStem: -7 60<190.625 366.635> 360 59<168 386> 687 60<198.364 354.974>
VStem: 55 72<119.534 291.273> 71 72<473.351 631.426> 411 72<473.464 627.994> 427 72<113.55 286.459>
LayerCount: 2
Back
SplineSet
277 339 m 0xf2
 210 339 159 302 159 219 c 0
 159 149 208 97 277 97 c 0
 350 97 395 146 395 211 c 0
 395 296 346 339 277 339 c 0xf2
276 643 m 0
 209 643 175 592 175 548 c 0
 175 502 203 443 277 443 c 0
 352 443 379 502 379 549 c 0xec
 379 593 344 643 276 643 c 0
39 211 m 0xf2
 39 359 160 436 277 436 c 0
 394 436 515 359 515 211 c 0
 515 63 386 -7 277 -7 c 0
 168 -7 39 63 39 211 c 0xf2
55 549 m 0xec
 55 683 168 747 277 747 c 0
 386 747 499 683 499 549 c 0
 499 440 386 346 277 346 c 0
 168 346 55 440 55 549 c 0xec
EndSplineSet
Fore
SplineSet
277 360 m 0xf2
 186 360 127 294 127 211 c 0
 127 93 200 53 277 53 c 4
 358 53 427 90 427 203 c 0
 427 288 370 360 277 360 c 0xf2
276 687 m 24
 200 687 143 637 143 548 c 0
 143 474 195 419 277 419 c 0
 360 419 411 474 411 549 c 0xec
 411 638 352 687 276 687 c 24
55 203 m 0xf2
 55 334 160 412 277 412 c 0
 394 412 499 334 499 203 c 0
 499 61 386 -7 277 -7 c 0
 168 -7 55 61 55 203 c 0xf2
71 549 m 0xec
 71 683 168 747 277 747 c 0
 386 747 483 683 483 549 c 0
 483 440 386 367 277 367 c 0
 168 367 71 440 71 549 c 0xec
EndSplineSet
Validated: 5
EndChar

StartChar: nine
Encoding: 57 57 46
Width: 600
Flags: W
HStem: -8 21G<169.034 212.5> 256 61<186.236 349.366> 687 60<187.817 350.576>
VStem: 47 72<389.21 609.111> 415 70<388.607 612.738>
LayerCount: 2
Back
SplineSet
266 328 m 0
 347 328 396 392 396 489 c 0
 396 579 355 645 266 645 c 0
 189 645 140 582 140 491 c 0
 140 399 187 328 266 328 c 0
252 232 m 4
 108 232 20 350 20 491 c 4
 20 642 121 747 266 747 c 0
 453 747 516 609 516 487 c 0
 516 383 467 297 400 202 c 0
 367 155 304 66 253 -8 c 1
 122 -8 l 1
 175 65 212 115 286 215 c 0
 297 230 312 240 334 251 c 1
 309 240 278 232 252 232 c 4
EndSplineSet
Fore
SplineSet
267 317 m 0
 369 317 415 389 415 490 c 0
 415 609 377 687 267 687 c 0
 156 687 119 600 119 499 c 0
 119 396 159 317 267 317 c 0
258 256 m 0
 121 256 47 355 47 499 c 0
 47 627 126 747 267 747 c 0
 424 747 485 620 485 492 c 0
 485 406 484 277 381 146 c 0
 328 79 247 19 178 -8 c 1
 152 50 l 1
 218 81 270 115 310 159 c 0
 353 206 383 264 396 318 c 1
 356 262 304 256 258 256 c 0
EndSplineSet
Validated: 1
EndChar

StartChar: colon
Encoding: 58 58 47
Width: 600
Flags: W
HStem: -8 118<178.37 271.63> 413 118<178.37 271.63>
VStem: 166 118<3.89313 98.1069 424.893 519.107>
LayerCount: 2
Back
SplineSet
153 64 m 0
 153 103 186 136 225 136 c 0
 264 136 297 103 297 64 c 0
 297 25 264 -8 225 -8 c 0
 186 -8 153 25 153 64 c 0
153 459 m 0
 153 498 186 531 225 531 c 0
 264 531 297 498 297 459 c 0
 297 420 264 387 225 387 c 0
 186 387 153 420 153 459 c 0
EndSplineSet
Fore
SplineSet
166 472 m 4
 166 504 189 531 225 531 c 4
 261 531 284 504 284 472 c 4
 284 440 261 413 225 413 c 4
 189 413 166 440 166 472 c 4
166 51 m 4
 166 83 189 110 225 110 c 4
 261 110 284 83 284 51 c 4
 284 19 261 -8 225 -8 c 4
 189 -8 166 19 166 51 c 4
EndSplineSet
Validated: 1
EndChar

StartChar: semicolon
Encoding: 59 59 48
Width: 600
Flags: W
HStem: -192 51<147.346 167.322> -8 118<178.37 229.976> 413 118<178.37 271.63>
VStem: 166 118<424.893 519.107> 250 34<19 42.7857>
LayerCount: 2
Back
SplineSet
153 64 m 4xe0
 153 103 186 136 225 136 c 4
 264 136 297 103 297 64 c 4xd0
 297 25 264 -8 225 -8 c 4
 186 -8 153 25 153 64 c 4xe0
153 459 m 0xe0
 153 498 186 531 225 531 c 0
 264 531 297 498 297 459 c 0
 297 420 264 387 225 387 c 0
 186 387 153 420 153 459 c 0xe0
225 136 m 5
 283 136 311 81 311 28 c 5
 311 -85 219 -174 151 -192 c 5
 113 -119 l 5
 178 -99 231 -47 231 17 c 5
 231 87 l 5xd0
 225 136 l 5
EndSplineSet
Fore
SplineSet
225 110 m 5xe8
 283 110 311 64 311 11 c 5
 311 -88 219 -174 151 -192 c 5
 125 -141 l 5
 190 -121 250 -48 250 16 c 5
 231 87 l 5
 225 110 l 5xe8
166 472 m 0xf0
 166 504 189 531 225 531 c 0
 261 531 284 504 284 472 c 0
 284 440 261 413 225 413 c 0
 189 413 166 440 166 472 c 0xf0
166 51 m 4
 166 83 189 110 225 110 c 4
 261 110 284 83 284 51 c 4xe8
 284 19 261 -8 225 -8 c 4
 189 -8 166 19 166 51 c 4
EndSplineSet
Validated: 5
EndChar

StartChar: less
Encoding: 60 60 49
Width: 600
Flags: W
LayerCount: 2
Back
SplineSet
83 208 m 1
 83 304 l 1
 533 156 l 1
 489 52 l 1
 83 208 l 1
83 336 m 1
 489 492 l 1
 533 388 l 1
 83 240 l 1
 83 336 l 1
EndSplineSet
Fore
SplineSet
83 320 m 5
 489 492 l 5
 517 432 l 5
 83 252 l 5
 83 320 l 5
83 292 m 5
 517 112 l 5
 489 52 l 5
 83 224 l 5
 83 292 l 5
EndSplineSet
Validated: 5
EndChar

StartChar: equal
Encoding: 61 61 50
Width: 600
Flags: W
HStem: 152 64<67 477> 344 64<67 477>
LayerCount: 2
Back
SplineSet
67 408 m 5
 477 408 l 5
 477 320 l 5
 67 320 l 5
 67 408 l 5
67 240 m 5
 477 240 l 5
 477 152 l 5
 67 152 l 5
 67 240 l 5
EndSplineSet
Fore
SplineSet
67 408 m 5
 477 408 l 5
 477 344 l 5
 67 344 l 5
 67 408 l 5
67 216 m 5
 477 216 l 5
 477 152 l 5
 67 152 l 5
 67 216 l 5
EndSplineSet
Validated: 1
EndChar

StartChar: greater
Encoding: 62 62 51
Width: 600
Flags: W
LayerCount: 2
Back
SplineSet
485 208 m 5
 79 52 l 5
 35 156 l 5
 485 304 l 5
 485 208 l 5
485 336 m 5
 485 240 l 5
 35 388 l 5
 79 492 l 5
 485 336 l 5
EndSplineSet
Fore
SplineSet
485 320 m 5
 485 252 l 5
 51 432 l 5
 79 492 l 5
 485 320 l 5
485 292 m 5
 485 224 l 5
 79 52 l 5
 51 112 l 5
 485 292 l 5
EndSplineSet
Validated: 5
EndChar

StartChar: question
Encoding: 63 63 52
Width: 600
Flags: W
HStem: -8 118<186.37 279.63> 684 63<132.259 309.585>
VStem: 174 118<3.89313 98.1069> 369 72<445.31 623.717>
LayerCount: 2
Back
SplineSet
161 64 m 0
 161 103 194 136 233 136 c 0
 272 136 305 103 305 64 c 0
 305 25 272 -8 233 -8 c 0
 194 -8 161 25 161 64 c 0
218 747 m 1
 336 747 441 659 441 539 c 1
 441 398 340 339 245 308 c 1
 272 195 l 1
 162 187 l 1
 134 296 l 1
 149 382 l 1
 271 404 321 452 321 539 c 1
 321 602 272 643 203 643 c 1
 157 643 115 627 79 595 c 1
 20 677 l 1
 65 710 127 747 218 747 c 1
EndSplineSet
Fore
SplineSet
221 747 m 1
 339 747 441 659 441 539 c 1
 441 401 346 321 225 308 c 1
 254 186 l 1
 192 178 l 1
 162 296 l 1
 166 364 l 1
 312 364 369 433 369 539 c 1
 369 631 315 684 221 684 c 1
 162 684 112 660 68 612 c 1
 24 657 l 1
 68 700 128 747 221 747 c 1
174 51 m 0
 174 83 197 110 233 110 c 0
 269 110 292 83 292 51 c 0
 292 19 269 -8 233 -8 c 0
 197 -8 174 19 174 51 c 0
EndSplineSet
Validated: 1
EndChar

StartChar: at
Encoding: 64 64 53
Width: 600
Flags: W
HStem: -8 60<209.573 389.428> 199 60<304.87 403.243> 525 58<313.432 411.554> 688 60<205.904 358.786>
VStem: 36 72<190.585 552.862> 214 72<278.237 494.817> 424 72<279.305 510.953>
LayerCount: 2
Back
SplineSet
323 495 m 1
 283 495 270 457 270 380 c 1
 270 310 283 275 323 275 c 1
 357 275 368 302 368 346 c 1
 368 470 l 1
 360 486 343 495 323 495 c 1
256 747 m 1
 383 747 472 652 472 500 c 1
 472 344 l 1
 472 300 510 278 534 267 c 1
 504 189 l 1
 463 203 442 218 428 266 c 5
 415 214 377 183 326 183 c 1
 235 183 174 256 174 376 c 1
 174 486 208 583 309 583 c 1
 331 583 354 576 368 557 c 1
 353 633 313 656 256 656 c 1
 168 656 124 595 124 388 c 1
 124 208 166 84 321 84 c 1
 366 84 399 100 426 127 c 1
 472 54 l 1
 432 21 385 -8 318 -8 c 1
 141 -8 20 114 20 388 c 1
 20 660 129 747 256 747 c 1
EndSplineSet
Fore
SplineSet
356 525 m 5
 297 525 286 445 286 368 c 5
 286 298 301 259 358 259 c 5
 402 259 424 298 424 362 c 5
 424 486 l 5
 408 513 385 525 356 525 c 5
496 381 m 5
 496 264 441 199 355 199 c 5
 264 199 214 252 214 372 c 5
 214 469 240 583 351 583 c 5
 378 583 405 574 424 550 c 5
 412 639 360 688 280 688 c 5
 180 688 108 595 108 388 c 1
 108 192 138 52 304 52 c 1
 349 52 408 72 444 119 c 1
 494 76 l 1
 444 18 380 -8 301 -8 c 1
 124 -8 36 114 36 388 c 1
 36 660 153 747 280 748 c 5
 407 747 496 659 496 507 c 5
 496 381 l 5
EndSplineSet
Validated: 1
EndChar

StartChar: A
Encoding: 65 65 54
Width: 600
Flags: W
HStem: 0 21G<61 135.79 437.21 512> 180 60<139 447> 719 20G<235.156 337.844>
VStem: 61 70<0 29.593> 442 70<0 29.593>
LayerCount: 2
Back
SplineSet
128 268 m 1
 436 268 l 1
 436 156 l 1
 128 156 l 1
 128 268 l 1
330 739 m 1
 517 0 l 1
 391 0 l 1
 230 739 l 1
 330 739 l 1
221 739 m 1
 321 739 l 1
 160 0 l 1
 34 0 l 1
 221 739 l 1
EndSplineSet
Fore
SplineSet
139 240 m 5
 447 240 l 5
 447 180 l 5
 139 180 l 5
 139 240 l 5
333 739 m 5
 512 0 l 5
 442 0 l 5
 265 739 l 5
 333 739 l 5
240 739 m 5
 308 739 l 5
 131 0 l 5
 61 0 l 5
 240 739 l 5
EndSplineSet
EndChar

StartChar: B
Encoding: 66 66 55
Width: 600
Flags: W
HStem: 0 60<140 380.158> 363 60<140 357.788> 679 60<139 351.515>
VStem: 68 72<60 363 423 679> 407 72<472.97 627.63> 443 72<123.019 292.525>
LayerCount: 2
Back
SplineSet
177 627 m 1xf8
 178 449 l 1
 276 449 l 6
 342 449 381 475 381 539 c 4
 381 602 336 627 269 627 c 6
 177 627 l 1xf8
178 337 m 1
 178 112 l 1
 289 112 l 6
 365 112 417 147 417 222 c 4xf4
 417 308 358 337 274 337 c 6
 178 337 l 1
58 0 m 1
 58 739 l 1
 289 739 l 6
 415 739 501 659 501 555 c 4xf8
 501 462 457 413 406 390 c 5
 481 367 537 298 537 203 c 4
 537 66 422 0 309 0 c 6
 58 0 l 1
EndSplineSet
Fore
SplineSet
139 679 m 1xf8
 140 423 l 1
 278 423 l 2
 359 423 407 468 407 556 c 0
 407 636 346 679 271 679 c 2
 139 679 l 1xf8
139 363 m 1
 140 60 l 5
 299 60 l 6
 380 60 443 114 443 208 c 0xf4
 443 306 375 363 284 363 c 2
 139 363 l 1
68 0 m 1
 68 739 l 1
 273 739 l 2
 394 739 479 659 479 555 c 0xf8
 479 462 432 410 384 390 c 1
 467 368 515 298 515 203 c 0
 515 66 412 0 299 0 c 2
 68 0 l 1
EndSplineSet
Validated: 1
EndChar

StartChar: C
Encoding: 67 67 56
Width: 600
Flags: W
HStem: -8 60<217.292 384.253> 687 60<214.609 376.928>
VStem: 44 72<194.423 553.335>
LayerCount: 2
Back
SplineSet
325 -8 m 1
 117 -8 33 154 33 397 c 1
 33 605 156 747 322 747 c 1
 438 747 520 691 553 643 c 5
 445 574 l 5
 420 610 371 627 323 627 c 1
 220 627 164 531 161 397 c 1
 161 226 206 113 325 112 c 1
 388 112 435 139 463 192 c 5
 563 115 l 5
 528 48 432 -8 325 -8 c 1
EndSplineSet
Fore
SplineSet
304 -8 m 1
 103 -8 44 170 44 397 c 1
 44 614 144 747 295 747 c 5
 394 747 464 698 498 623 c 5
 440 591 l 1
 407 656 363 687 296 687 c 5
 167 687 116 562 116 397 c 1
 116 170 162 52 304 52 c 5
 371 52 424 89 459 160 c 1
 512 126 l 1
 476 50 406 -8 304 -8 c 1
EndSplineSet
Validated: 1
EndChar

StartChar: D
Encoding: 68 68 57
Width: 600
Flags: W
HStem: 1 60<102 301.134> 680 60<108 303.759>
VStem: 102 27<1 61 680 740> 438 72<221.092 520.346>
LayerCount: 2
Back
SplineSet
110 739 m 25
 252 739 l 21
 461 739 541 543 541 376 c 0
 541 192 456 0 244 0 c 9
 104 0 l 25
 104 120 l 25
 245 120 l 17
 338 120 417 192 417 376 c 4
 417 543 342 619 252 619 c 13
 110 619 l 25
 110 739 l 25
59 739 m 1
 187 739 l 1
 187 0 l 1
 59 0 l 1
 59 739 l 1
EndSplineSet
Fore
SplineSet
108 740 m 25
 206 740 l 1
 415 740 510 577 510 377 c 0
 510 153 414 1 202 1 c 1
 102 1 l 25
 102 61 l 25
 203 61 l 1
 340 61 438 153 438 377 c 0
 438 577 340 680 206 680 c 5
 108 680 l 29
 108 740 l 25
57 740 m 1
 129 740 l 1
 129 1 l 1
 57 1 l 1
 57 740 l 1
EndSplineSet
Validated: 5
EndChar

StartChar: E
Encoding: 69 69 58
Width: 600
Flags: W
HStem: 0 60<150 494> 362 64<150 418> 679 60<150 494>
LayerCount: 2
Back
SplineSet
202 450 m 1xf0
 438 450 l 5
 438 338 l 5
 202 338 l 1
 202 450 l 1xf0
202 120 m 1
 514 120 l 5
 514 0 l 5xe8
 202 0 l 1
 202 120 l 1
202 739 m 1xf0
 514 739 l 5
 514 619 l 5xe8
 202 619 l 1
 202 739 l 1xf0
74 739 m 1xf0
 202 739 l 1
 202 0 l 1
 74 0 l 1
 74 739 l 1xf0
EndSplineSet
Fore
SplineSet
150 426 m 1
 418 426 l 1
 418 362 l 5
 150 362 l 5
 150 426 l 1
150 60 m 1
 494 60 l 1
 494 0 l 1
 150 0 l 1
 150 60 l 1
150 739 m 1
 494 739 l 1
 494 679 l 1
 150 679 l 1
 150 739 l 1
78 739 m 1
 150 739 l 1
 150 0 l 1
 78 0 l 1
 78 739 l 1
EndSplineSet
Validated: 5
EndChar

StartChar: F
Encoding: 70 70 59
Width: 600
Flags: W
HStem: 0 21G<82 154> 362 64<138 422> 679 60<118 498>
VStem: 82 72<0 362 426 679> 118 36<679 739> 138 16<362 426>
LayerCount: 2
Back
SplineSet
130 450 m 5xe4
 438 450 l 1
 438 338 l 1
 130 338 l 5
 130 450 l 5xe4
110 739 m 5xe8
 514 739 l 1
 514 619 l 1
 110 619 l 5
 110 739 l 5xe8
74 739 m 5xf0
 202 739 l 5xe8
 202 0 l 5
 74 0 l 5
 74 739 l 5xf0
EndSplineSet
Fore
SplineSet
138 426 m 1xe4
 422 426 l 1
 422 362 l 5
 138 362 l 5
 138 426 l 1xe4
118 739 m 1xe8
 498 739 l 1
 498 679 l 1
 118 679 l 1
 118 739 l 1xe8
82 739 m 1xf0
 154 739 l 1xe8
 154 0 l 1
 82 0 l 1
 82 739 l 1xf0
EndSplineSet
Validated: 5
EndChar

StartChar: G
Encoding: 71 71 60
Width: 600
Flags: W
HStem: -8 60<209.49 383.635> 362 60<266 427> 687 60<207.947 372.828>
VStem: 37 72<190.528 545.452> 426 73<91.708 362>
LayerCount: 2
Back
SplineSet
291 747 m 1xbc
 390 747 449 713 494 658 c 1
 404 572 l 1
 381 605 340 627 291 627 c 1
 223 627 129 569 129 388 c 1
 129 184 197 112 280 112 c 1xbc
 341 112 395 163 395 255 c 1
 395 330 l 1
 252 330 l 29
 252 442 l 29
 514 442 l 25
 514 0 l 25
 394 0 l 1x7c
 394 64 l 1
 373 21 324 -8 262 -8 c 1
 144 -8 1 89 1 388 c 1
 1 617 145 747 291 747 c 1xbc
EndSplineSet
Fore
SplineSet
499 102 m 1
 476 64 395 -8 289 -8 c 1
 164 -8 37 79 37 374 c 1
 37 626 152 747 284 747 c 1
 384 747 439 710 488 642 c 1
 435 606 l 1
 396 658 353 687 283 687 c 1
 173 687 109 578 109 374 c 1
 109 130 187 52 292 52 c 1
 351 52 394 67 426 119 c 1
 427 362 l 1
 266 362 l 25
 266 422 l 25
 499 422 l 1
 499 102 l 1
EndSplineSet
Validated: 1
EndChar

StartChar: H
Encoding: 72 72 61
Width: 600
Flags: W
HStem: 0 21G<75 147 423 495> 362 64<111 459> 719 20G<75 147 423 495>
VStem: 75 72<0 362 426 739> 111 36<362 426> 423 72<0 362 426 739> 423 36<362 426>
LayerCount: 2
Back
SplineSet
347 739 m 5xe4
 475 739 l 5
 475 0 l 5
 347 0 l 5
 347 739 l 5xe4
63 450 m 1xea
 439 450 l 5
 439 338 l 5
 63 338 l 1
 63 450 l 1xea
27 739 m 1xf0
 155 739 l 1
 155 0 l 1
 27 0 l 1
 27 739 l 1xf0
EndSplineSet
Fore
SplineSet
423 739 m 1xe4
 495 739 l 1
 495 0 l 1
 423 0 l 1
 423 739 l 1xe4
111 426 m 1xea
 459 426 l 1
 459 362 l 5
 111 362 l 5
 111 426 l 1xea
75 739 m 1xf0
 147 739 l 1
 147 0 l 1
 75 0 l 1
 75 739 l 1xf0
EndSplineSet
Validated: 5
EndChar

StartChar: I
Encoding: 73 73 62
Width: 600
Flags: W
HStem: 0 56<81 469> 683 56<81 469>
VStem: 241 72<0 739>
LayerCount: 2
Back
SplineSet
73 112 m 5
 477 112 l 1
 477 0 l 1
 73 0 l 5
 73 112 l 5
73 739 m 5
 477 739 l 1
 477 627 l 1
 73 627 l 5
 73 739 l 5
213 739 m 1
 341 739 l 1
 341 0 l 1
 213 0 l 1
 213 739 l 1
EndSplineSet
Fore
SplineSet
81 56 m 1
 241 56 l 5
 313 56 l 5
 469 56 l 1
 469 0 l 1
 81 0 l 1
 81 56 l 1
81 739 m 1
 469 739 l 1
 469 683 l 1
 313 683 l 1
 241 683 l 1
 81 683 l 1
 81 739 l 1
241 739 m 1
 313 739 l 1
 313 0 l 1
 241 0 l 1
 241 739 l 1
EndSplineSet
EndChar

StartChar: J
Encoding: 74 74 63
Width: 600
Flags: W
HStem: -8 60<188.266 345.403> 681 12<407 479> 693 46<151 194.008>
VStem: 55 68<120.967 169.476> 407 72<121.173 693>
LayerCount: 2
Back
SplineSet
495 683 m 1xb0
 495 242 l 1
 495 88 379 -8 251 -8 c 1
 122 -8 58 42 19 103 c 1
 118 174 l 1
 152 126 182 112 248 112 c 1
 318 112 367 167 367 239 c 1
 367 683 l 1
 495 683 l 1xb0
143 739 m 1xd0
 495 739 l 1xd0
 495 627 l 1xb0
 143 627 l 1
 143 739 l 1xd0
EndSplineSet
Fore
SplineSet
479 693 m 5xd8
 479 242 l 1
 479 88 397 -8 269 -8 c 1
 140 -8 74 73 55 168 c 1
 123 182 l 1
 139 106 182 52 266 52 c 1
 370 52 407 129 407 239 c 1
 407 693 l 5
 479 693 l 5xd8
151 739 m 1xb8
 479 739 l 1xb8
 479 681 l 1
 223 681 l 1xd8
 151 693 l 1
 151 739 l 1xb8
EndSplineSet
Validated: 5
EndChar

StartChar: K
Encoding: 75 75 64
Width: 600
Flags: W
HStem: 0 21G<72 144 428.273 533> 719 20G<72 144 386.474 490>
VStem: 72 72<0 263 359 739> 125 19<263 359>
LayerCount: 2
Back
SplineSet
286 426 m 1xc0
 556 0 l 1
 408 0 l 1
 210 334 l 1
 286 426 l 1xc0
131 202 m 1xd0
 131 365 l 1
 356 739 l 1
 503 739 l 1
 131 202 l 1xd0
54 739 m 1xe0
 180 739 l 1
 180 0 l 1
 54 0 l 1
 54 739 l 1xe0
EndSplineSet
Fore
SplineSet
212 397 m 1xc0
 277 366 l 1
 533 0 l 1
 442 0 l 1
 186 373 l 1
 212 397 l 1xc0
125 263 m 1xd0
 125 359 l 1
 401 739 l 1
 490 739 l 1
 125 263 l 1xd0
72 739 m 1xe0
 144 739 l 1
 144 0 l 1
 72 0 l 1
 72 739 l 1xe0
EndSplineSet
Validated: 5
EndChar

StartChar: L
Encoding: 76 76 65
Width: 600
Flags: W
HStem: 0 60<126 503> 719 20G<90 162>
VStem: 90 72<60 739> 126 36<0 60>
LayerCount: 2
Back
SplineSet
50 120 m 1
 490 120 l 5
 490 0 l 5
 50 0 l 1
 50 120 l 1
50 739 m 1
 178 739 l 1
 178 120 l 1
 50 120 l 1
 50 739 l 1
EndSplineSet
Fore
SplineSet
126 60 m 1xd0
 503 60 l 1
 503 0 l 1
 126 0 l 1
 126 60 l 1xd0
90 739 m 1xe0
 162 739 l 1xe0
 162 0 l 1xd0
 90 0 l 1
 90 739 l 1xe0
EndSplineSet
Validated: 5
EndChar

StartChar: M
Encoding: 77 77 66
Width: 600
Flags: W
HStem: 0 21G<42 114 423 495> 719 20G<42 131.25 405.75 495>
VStem: 42 64<557.193 580> 106 8<557.193 739> 423 72<0 580> 423 8<557.193 739>
LayerCount: 2
Back
SplineSet
409 739 m 25xc4
 409 548 l 25
 318 0 l 1
 210 0 l 25
 358 739 l 1
 409 739 l 25xc4
120 739 m 25xd0
 171 739 l 1
 311 0 l 25
 203 0 l 1
 120 548 l 25xe0
 120 739 l 25xd0
401 739 m 1xc4
 513 739 l 1
 513 0 l 1
 401 0 l 1xc8
 401 739 l 1xc4
16 739 m 1xe0
 128 739 l 1
 128 0 l 1xd0
 16 0 l 1
 16 739 l 1xe0
EndSplineSet
Fore
SplineSet
431 739 m 25xc4
 431 580 l 5
 310 195 l 1
 242 195 l 25
 412 739 l 1
 431 739 l 25xc4
106 739 m 25xd0
 125 739 l 1
 295 195 l 25
 227 195 l 1
 106 580 l 5xe0
 106 739 l 25xd0
423 739 m 1xc4
 495 739 l 1
 495 0 l 1
 423 0 l 1xc8
 423 739 l 1xc4
42 739 m 1xe0
 114 739 l 1
 114 0 l 1xd0
 42 0 l 1
 42 739 l 1xe0
EndSplineSet
Validated: 5
EndChar

StartChar: N
Encoding: 78 78 67
Width: 600
Flags: W
HStem: 0 21G<66 138 406.699 496> 719 20G<66 155.305 424 496>
VStem: 66 72<0 615> 130 8<615 739> 424 72<120 739> 424 10<0 120>
LayerCount: 2
Back
SplineSet
142 739 m 1xd4
 158 739 l 1
 390 228 l 5
 390 0 l 5
 372 0 l 5
 142 507 l 1
 142 739 l 1xd4
380 739 m 5xc8
 500 739 l 5
 500 0 l 5xc8
 380 0 l 5xc4
 380 739 l 5xc8
38 739 m 1xe0
 150 739 l 1xd0
 150 0 l 1
 38 0 l 1
 38 739 l 1xe0
EndSplineSet
Fore
SplineSet
130 739 m 1xd4
 146 739 l 1
 434 120 l 5
 434 0 l 1
 416 0 l 1
 130 615 l 1
 130 739 l 1xd4
424 739 m 1xc8
 496 739 l 1
 496 0 l 1xc8
 424 0 l 1xc4
 424 739 l 1xc8
66 739 m 1xe0
 138 739 l 1xd0
 138 0 l 1
 66 0 l 1
 66 739 l 1xe0
EndSplineSet
Validated: 5
EndChar

StartChar: O
Encoding: 79 79 68
Width: 600
Flags: W
HStem: -8 60<208.413 357.481> 687 60<208.413 357.481>
VStem: 41 72<187.25 553.765> 452 73<187.25 553.765>
LayerCount: 2
Back
SplineSet
149 367 m 4
 149 169 205 112 279 112 c 4
 353 112 408 169 408 367 c 4
 408 574 353 627 279 627 c 4
 205 627 149 574 149 367 c 4
21 369 m 4
 21 660 156 747 279 747 c 4
 402 747 529 660 529 369 c 4
 529 87 402 -8 279 -8 c 4
 156 -8 21 87 21 369 c 4
EndSplineSet
Fore
SplineSet
113 367 m 0
 113 127 193 52 283 52 c 0
 373 52 452 127 452 367 c 0
 452 620 373 687 283 687 c 0
 193 687 113 620 113 367 c 0
41 369 m 0
 41 668 160 747 283 747 c 0
 406 747 525 668 525 369 c 0
 525 77 406 -8 283 -8 c 0
 160 -8 41 77 41 369 c 0
EndSplineSet
Validated: 1
EndChar

StartChar: P
Encoding: 80 80 69
Width: 600
Flags: W
HStem: 0 21G<66 138> 305 60<129 366.014> 679 60<125 371.861>
VStem: 66 72<0 305 365 679> 129 9<305 365 679 739> 445 72<445.131 605.652>
LayerCount: 2
Back
SplineSet
166 739 m 1
 166 739 241 739 313 739 c 4
 441 739 531 643 531 528 c 4
 531 404 435 305 295 305 c 5
 166 305 l 1
 166 425 l 1
 311 425 l 5
 363 425 403 462 403 528 c 4
 403 585 359 627 313 627 c 5
 166 627 l 1
 166 739 l 1
46 739 m 1
 166 739 l 1
 166 0 l 1
 46 0 l 1
 46 739 l 1
EndSplineSet
Fore
SplineSet
125 739 m 1xec
 125 739 227 739 299 739 c 0
 427 739 517 643 517 528 c 0
 517 404 421 305 281 305 c 9
 129 305 l 1
 129 365 l 5
 281 365 l 21
 382 365 445 440 445 528 c 0
 445 612 381 679 299 679 c 9
 125 679 l 1
 125 739 l 1xec
66 739 m 1xf4
 138 739 l 1xec
 138 0 l 1
 66 0 l 1
 66 739 l 1xf4
EndSplineSet
Validated: 5
EndChar

StartChar: Q
Encoding: 81 81 70
Width: 600
Flags: W
HStem: -180 59<376.051 515.528> -8 8<264 326> 687 60<210.249 355.654>
VStem: 41 72<191.575 548.976> 452 73<191.575 548.976>
LayerCount: 2
Back
SplineSet
149 367 m 0
 149 169 205 112 279 112 c 0
 353 112 408 169 408 367 c 0
 408 574 353 627 279 627 c 0
 205 627 149 574 149 367 c 0
21 369 m 0
 21 660 156 747 279 747 c 0
 402 747 529 660 529 369 c 0
 529 87 402 -8 279 -8 c 0
 156 -8 21 87 21 369 c 0
326 22 m 5
 326 22 333 -97 413 -97 c 4
 454 -97 485 -68 485 -68 c 5
 536 -146 l 5
 536 -146 486 -192 420 -192 c 4
 289 -192 213 -111 213 6 c 5
 326 22 l 5
EndSplineSet
Fore
SplineSet
113 367 m 0
 113 137 193 52 283 52 c 4
 373 52 452 137 452 367 c 0
 452 606 373 687 283 687 c 0
 193 687 113 606 113 367 c 0
41 369 m 0
 41 660 160 747 283 747 c 0
 406 747 525 660 525 369 c 0
 525 87 406 -8 283 -8 c 0
 160 -8 41 87 41 369 c 0
326 0 m 25
 326 0 334 -121 442 -121 c 0
 483 -121 512 -102 512 -102 c 25
 533 -148 l 1
 533 -148 500 -180 434 -180 c 0
 322 -180 264 -78 264 0 c 9
 326 0 l 25
EndSplineSet
Validated: 5
EndChar

StartChar: R
Encoding: 82 82 71
Width: 600
Flags: W
HStem: 0 21G<76 148 429.114 517> 305 60<139 346.014> 305 11<268 313> 679 60<135 351.861>
VStem: 76 72<0 305 365 679> 139 9<305 365 679 739> 425 72<445.131 605.652>
LayerCount: 2
Back
SplineSet
211 332 m 1xb2
 343 332 l 5
 512 0 l 5
 380 0 l 1
 211 332 l 1xb2
91 739 m 1
 91 739 191 739 263 739 c 0
 391 739 481 643 481 528 c 0
 481 404 385 305 245 305 c 9
 95 305 l 1
 95 417 l 1
 257 417 l 17xd6
 325 417 361 440 361 528 c 0
 361 592 317 627 255 627 c 9
 91 627 l 1
 91 739 l 1
32 739 m 1x9a
 160 739 l 1x96
 160 0 l 1
 32 0 l 1
 32 739 l 1x9a
EndSplineSet
Fore
SplineSet
268 316 m 1xb2
 313 316 l 1
 376 268 l 1
 517 0 l 1
 440 0 l 1
 268 316 l 1xb2
135 739 m 1
 135 739 207 739 279 739 c 0
 407 739 497 643 497 528 c 0
 497 404 401 305 261 305 c 9
 139 305 l 1
 139 365 l 1
 261 365 l 17xd6
 362 365 425 440 425 528 c 0
 425 612 361 679 279 679 c 9
 135 679 l 1
 135 739 l 1
76 739 m 1x9a
 148 739 l 1x96
 148 0 l 1
 76 0 l 1
 76 739 l 1x9a
EndSplineSet
Validated: 5
EndChar

StartChar: S
Encoding: 83 83 72
Width: 600
Flags: W
HStem: -8 60<191.969 373.746> 687 60<200.366 373.579>
VStem: 54 66<122.072 152.389> 76 72<498.095 638.144> 430 72<106.21 257.734>
LayerCount: 2
Back
SplineSet
282 747 m 1
 368 747 456 717 509 657 c 1
 420 581 l 1
 388 613 348 635 283 635 c 1
 226 635 176 608 176 564 c 1
 176 511 211 480 312 429 c 0
 465 352 526 289 526 186 c 1
 526 50 394 -8 270 -8 c 1
 152 -8 70 35 26 83 c 1
 112 164 l 1
 157 122 199 104 270 104 c 1
 348 104 402 133 402 190 c 1
 402 266 302 309 223 346 c 0
 115 397 56 462 56 575 c 1
 56 674 157 747 282 747 c 1
EndSplineSet
Fore
SplineSet
282 747 m 5xd8
 368 747 441 724 498 625 c 5
 439 592 l 5
 402 655 361 687 283 687 c 5
 196 687 148 634 148 573 c 5xd8
 148 496 188 466 307 410 c 4
 410 362 502 294 502 190 c 5
 502 54 406 -8 282 -8 c 5
 164 -8 87 46 54 150 c 5
 120 172 l 5xe8
 138 102 189 52 282 52 c 5
 378 52 430 101 430 185 c 5
 430 276 349 320 248 367 c 4
 132 421 76 479 76 575 c 5
 76 680 167 747 282 747 c 5xd8
EndSplineSet
Validated: 1
EndChar

StartChar: T
Encoding: 84 84 73
Width: 600
Flags: W
HStem: 0 21G<241 313> 679 60<33 517>
VStem: 241 72<0 739>
LayerCount: 2
Back
SplineSet
33 739 m 1
 517 739 l 1
 517 619 l 5
 33 619 l 5
 33 739 l 1
213 739 m 1
 341 739 l 1
 341 0 l 1
 213 0 l 1
 213 739 l 1
EndSplineSet
Fore
SplineSet
33 739 m 1
 517 739 l 1
 517 679 l 5
 33 679 l 5
 33 739 l 1
241 739 m 1
 313 739 l 1
 313 0 l 1
 241 0 l 1
 241 739 l 1
EndSplineSet
Validated: 5
EndChar

StartChar: U
Encoding: 85 85 74
Width: 600
Flags: W
HStem: -8 60<192.08 352.476> 719 20G<50 122 424 496>
VStem: 50 72<131.31 739> 424 72<135.438 739>
LayerCount: 2
Back
SplineSet
79 739 m 5
 207 739 l 5
 207 227 l 5
 207 160 240 112 306 112 c 4
 372 112 405 160 405 227 c 5
 405 739 l 5
 533 739 l 5
 533 225 l 5
 533 81 418 -8 302 -8 c 4
 188 -8 79 81 79 227 c 5
 79 739 l 5
EndSplineSet
Fore
SplineSet
50 739 m 1
 122 739 l 1
 122 251 l 1
 122 113 181 52 273 52 c 4
 359 52 424 113 424 251 c 1
 424 739 l 1
 496 739 l 1
 496 249 l 1
 496 75 395 -8 269 -8 c 0
 147 -8 50 75 50 251 c 1
 50 739 l 1
EndSplineSet
Validated: 1
EndChar

StartChar: V
Encoding: 86 86 75
Width: 600
Flags: W
HStem: 0 21G<214.587 318.413> 719 20G<20 104.142 428.858 513>
VStem: 20 79<712.514 739> 434 79<712.514 739>
LayerCount: 2
Back
SplineSet
220 0 m 1
 398 739 l 5
 525 739 l 5
 329 0 l 1
 220 0 l 1
8 739 m 1
 135 739 l 1
 313 0 l 1
 204 0 l 1
 8 739 l 1
EndSplineSet
Fore
SplineSet
244 0 m 1
 434 739 l 1
 513 739 l 1
 313 0 l 1
 244 0 l 1
20 739 m 5
 99 739 l 5
 289 0 l 1
 220 0 l 1
 20 739 l 5
EndSplineSet
Validated: 5
EndChar

StartChar: W
Encoding: 87 87 76
Width: 600
Flags: W
HStem: 0 21G<94.3491 179.927 384.073 469.651> 719 20G<35 108.353 455.647 529>
VStem: 35 72<652.161 739> 457 72<652.161 739>
LayerCount: 2
Back
SplineSet
444 0 m 1
 351 0 l 1
 259 657 l 1
 337 657 l 1
 444 0 l 1
529 739 m 1
 468 0 l 1
 359 0 l 1
 409 739 l 1
 529 739 l 1
104 0 m 1
 233 657 l 1
 313 657 l 5
 213 0 l 1
 104 0 l 1
35 739 m 1
 155 739 l 1
 205 0 l 1
 96 0 l 1
 35 739 l 1
EndSplineSet
Fore
SplineSet
444 0 m 5
 388 0 l 5
 259 657 l 1
 323 657 l 1
 444 0 l 5
529 739 m 1
 468 0 l 5
 407 0 l 5
 457 739 l 1
 529 739 l 1
120 0 m 1
 249 657 l 1
 305 657 l 1
 176 0 l 1
 120 0 l 1
35 739 m 1
 107 739 l 1
 157 0 l 1
 96 0 l 1
 35 739 l 1
EndSplineSet
Validated: 5
EndChar

StartChar: X
Encoding: 88 88 77
Width: 600
Flags: W
HStem: 0 21G<24 121.53 406.47 504> 719 20G<24 121.56 406.44 504>
LayerCount: 2
Back
SplineSet
16 739 m 5
 144 739 l 5
 264 485 l 1
 376 739 l 1
 512 739 l 1
 334 363 l 1
 512 0 l 1
 376 0 l 1
 264 255 l 1
 144 0 l 5
 16 0 l 5
 190 363 l 5
 16 739 l 5
EndSplineSet
Fore
SplineSet
24 739 m 1
 112 739 l 1
 264 421 l 5
 416 739 l 1
 504 739 l 1
 308 370 l 5
 504 0 l 1
 416 0 l 1
 264 319 l 5
 112 0 l 1
 24 0 l 1
 220 370 l 5
 24 739 l 1
EndSplineSet
Validated: 1
EndChar

StartChar: Y
Encoding: 89 89 78
Width: 600
Flags: W
HStem: 0 21G<231 303> 302 12<231 298> 719 20G<24 117.879 416.121 510>
VStem: 231 72<0 314>
LayerCount: 2
Back
SplineSet
203 302 m 1
 331 302 l 1
 331 0 l 1
 203 0 l 1
 203 302 l 1
219 302 m 1
 405 739 l 5
 526 739 l 5
 331 302 l 1
 219 302 l 1
8 739 m 1
 129 739 l 1
 313 302 l 1
 203 302 l 1
 8 739 l 1
EndSplineSet
Fore
SplineSet
231 314 m 1
 303 314 l 1
 303 0 l 1
 231 0 l 1
 231 314 l 1
231 302 m 1
 425 739 l 1
 510 739 l 1
 298 302 l 1
 231 302 l 1
24 739 m 1
 109 739 l 1
 303 302 l 1
 236 302 l 1
 24 739 l 1
EndSplineSet
Validated: 5
EndChar

StartChar: Z
Encoding: 90 90 79
Width: 600
Flags: W
HStem: 0 60<142 495> 679 60<64 495>
LayerCount: 2
Back
SplineSet
377 627 m 1
 503 627 l 1
 182 112 l 5
 56 112 l 5
 377 627 l 1
56 112 m 5
 495 112 l 1
 495 0 l 1
 56 0 l 5
 56 112 l 5
64 739 m 1
 503 739 l 1
 503 627 l 1
 64 627 l 1
 64 739 l 1
EndSplineSet
Fore
SplineSet
417 679 m 1
 495 679 l 1
 142 60 l 5
 64 60 l 5
 417 679 l 1
64 60 m 5
 495 60 l 5
 495 0 l 1
 64 0 l 1
 64 60 l 5
64 739 m 1
 495 739 l 1
 495 679 l 1
 64 679 l 1
 64 739 l 1
EndSplineSet
Validated: 5
EndChar

StartChar: bracketleft
Encoding: 91 91 80
Width: 600
Flags: W
HStem: -64 60<200 442> 739 61<200 442>
VStem: 200 40<-64 -4 739 800>
LayerCount: 2
Back
SplineSet
200 627 m 1xd0
 200 739 l 1xd0
 442 739 l 1
 442 627 l 1xe0
 200 627 l 1xd0
200 0 m 1
 200 112 l 1xd0
 442 112 l 1
 442 0 l 1xe0
 200 0 l 1
168 739 m 1xe0
 296 739 l 5
 296 0 l 5xd0
 168 0 l 1
 168 739 l 1xe0
EndSplineSet
Fore
SplineSet
200 739 m 1
 200 800 l 1
 442 800 l 1
 442 739 l 1
 200 739 l 1
200 -64 m 1
 200 -4 l 1
 442 -4 l 1
 442 -64 l 1
 200 -64 l 1
168 800 m 1
 240 800 l 1
 240 -64 l 1
 168 -64 l 1
 168 800 l 1
EndSplineSet
Validated: 5
EndChar

StartChar: backslash
Encoding: 92 92 81
Width: 600
Flags: W
LayerCount: 2
Back
SplineSet
536 0 m 5
 400 -8 l 1
 69 739 l 1
 205 747 l 5
 536 0 l 5
EndSplineSet
Fore
SplineSet
85 776 m 5
 150 800 l 5
 520 -37 l 5
 455 -61 l 5
 85 776 l 5
EndSplineSet
Validated: 1
EndChar

StartChar: bracketright
Encoding: 93 93 82
Width: 600
Flags: W
HStem: -64 60<136 378> 739 61<136 378>
VStem: 338 40<-64 -4 739 800>
LayerCount: 2
Back
SplineSet
378 627 m 1xd0
 136 627 l 1
 136 739 l 1xe0
 378 739 l 1
 378 627 l 1xd0
378 0 m 1xd0
 136 0 l 1
 136 112 l 1xe0
 378 112 l 1
 378 0 l 1xd0
410 739 m 1
 410 0 l 1xe0
 282 0 l 5
 282 739 l 5xd0
 410 739 l 1
EndSplineSet
Fore
SplineSet
378 739 m 1
 136 739 l 1
 136 800 l 1
 378 800 l 1
 378 739 l 1
378 -64 m 1
 136 -64 l 1
 136 -4 l 1
 378 -4 l 1
 378 -64 l 1
410 800 m 1
 410 -64 l 1
 338 -64 l 1
 338 800 l 1
 410 800 l 1
EndSplineSet
Validated: 5
EndChar

StartChar: asciicircum
Encoding: 94 94 83
Width: 600
Flags: W
HStem: 651 181
VStem: 103 320
LayerCount: 2
Fore
SplineSet
103 699 m 25
 231 832 l 1
 295 832 l 25
 423 699 l 25
 383 651 l 25
 263 768 l 25
 143 651 l 25
 103 699 l 25
EndSplineSet
Validated: 1
EndChar

StartChar: underscore
Encoding: 95 95 84
Width: 600
Flags: W
HStem: -64 64<79 472>
LayerCount: 2
Back
SplineSet
79 0 m 1
 472 0 l 1
 472 -104 l 1
 79 -104 l 1
 79 0 l 1
EndSplineSet
Fore
SplineSet
79 0 m 1
 472 0 l 5
 472 -64 l 5
 79 -64 l 1
 79 0 l 1
EndSplineSet
Validated: 1
EndChar

StartChar: grave
Encoding: 96 96 85
Width: 600
Flags: W
HStem: 747 181
VStem: 136 241
LayerCount: 2
Back
SplineSet
344 747 m 1
 112 834 l 1
 178 928 l 1
 377 816 l 1
 344 747 l 1
EndSplineSet
Fore
SplineSet
344 747 m 1
 136 868 l 1
 178 928 l 1
 377 795 l 1
 344 747 l 1
EndSplineSet
Validated: 1
EndChar

StartChar: t
Encoding: 116 116 86
Width: 600
Flags: W
HStem: 0 56<272.95 426.362> 451 56<103.76 474> 451 40<32 90.24>
VStem: 162 72<96.9169 683>
LayerCount: 2
Back
SplineSet
130 198 m 1
 130 739 l 1
 250 739 l 1
 250 198 l 1
 250 140 281 96 350 96 c 1
 400 96 436 109 469 143 c 1
 535 69 l 5
 482 17 423 -8 349 -8 c 1
 249 -8 130 59 130 198 c 1
16 523 m 1
 466 523 l 1
 466 419 l 1
 16 419 l 1
 16 523 l 1
EndSplineSet
Fore
SplineSet
337 0 m 1x90
 221 0 162 77 162 178 c 1
 162 683 l 1
 234 701.958007812 l 1
 234 178 l 1
 234 97 278 56 337 56 c 1
 392 56 428 75 474 108 c 1
 506 52 l 1
 436.396484375 13.5634765625 412 0 337 0 c 1x90
32 491 m 1xb0
 162 507 l 1
 474 507 l 1
 474 451 l 1
 367 451 l 1xd0
 32 451 l 1
 32 491 l 1xb0
EndSplineSet
EndChar

StartChar: u
Encoding: 117 117 87
Width: 600
Flags: W
HStem: -8 60<184.108 338.031> 0 21G<413 472.039> 487 20G<65 137 401 473>
VStem: 65 72<100.548 507> 401 72<44.16 80 116 507> 417 55<0 35.84>
LayerCount: 2
Back
SplineSet
495 0 m 5x78
 375 0 l 5
 375 523 l 5
 496 523 l 5
 495 0 l 5x78
427 113 m 5
 409 76 358 -8 242 -8 c 0
 124 -8 52 85 52 196 c 1
 52 523 l 1
 172 523 l 1
 172 190 l 2
 172 133 219 96 270 96 c 0xb8
 336 96 375 137 375 194 c 5
 427 113 l 5
EndSplineSet
Fore
SplineSet
472 0 m 1x74
 417 0 l 1x74
 401 80 l 1
 401 507 l 1
 473 507 l 1x78
 472 0 l 1x74
419 116 m 1
 391 45 340 -8 250 -8 c 0
 123 -8 65 83 65 189 c 1
 65 507 l 1
 137 507 l 1
 137 191 l 2
 137 103 178 52 259 52 c 4
 355 52 401 121 401 203 c 5xb8
 419 116 l 1
EndSplineSet
Validated: 5
EndChar

StartChar: v
Encoding: 118 118 88
Width: 600
Flags: W
HStem: 0 21G<223.953 309.047> 487 20G<28 114.495 418.505 505>
LayerCount: 2
Back
SplineSet
223 0 m 1
 394 523 l 1
 517 523 l 1
 324 0 l 1
 223 0 l 1
16 523 m 5
 139 523 l 5
 313 0 l 1
 212 0 l 1
 16 523 l 5
EndSplineSet
Fore
SplineSet
236 0 m 1
 426 507 l 5
 505 507 l 5
 301 0 l 1
 236 0 l 1
28 507 m 1
 107 507 l 1
 297 0 l 1
 232 0 l 1
 28 507 l 1
EndSplineSet
Validated: 5
EndChar

StartChar: w
Encoding: 119 119 89
Width: 600
Flags: W
HStem: 0 21G<101.278 189.318 359.059 446.722> 487 20G<35 109.288 438.712 513>
VStem: 35 72<454.331 507> 441 72<454.331 507>
LayerCount: 2
Back
SplineSet
428 0 m 1
 356 0 l 1
 251 441 l 1
 323 441 l 1
 428 0 l 1
529 523 m 1
 452 0 l 1
 383 0 l 1
 425 523 l 1
 529 523 l 1
120 0 m 1
 249 441 l 1
 321 441 l 1
 192 0 l 1
 120 0 l 1
35 523 m 1
 139 523 l 1
 165 0 l 1
 96 0 l 1
 35 523 l 1
EndSplineSet
Fore
SplineSet
420 0 m 1
 364 0 l 1
 259 425 l 5
 315 425 l 5
 420 0 l 1
513 507 m 5
 444 0 l 1
 383 0 l 1
 441 507 l 5
 513 507 l 5
128 0 m 1
 241 425 l 5
 297 425 l 5
 184 0 l 1
 128 0 l 1
35 507 m 5
 107 507 l 5
 165 0 l 1
 104 0 l 1
 35 507 l 5
EndSplineSet
Validated: 5
EndChar

StartChar: y
Encoding: 121 121 90
Width: 600
Flags: W
HStem: 487 20G<21 109.427 420.373 510>
LayerCount: 2
Back
SplineSet
25 507 m 1
 105 507 l 1
 302 50 l 1
 247 22 l 1
 25 507 l 1
152 -192 m 0
 456 507 l 1
 538 507 l 1
 226 -192 l 0
 152 -192 l 0
EndSplineSet
Fore
SplineSet
21 507 m 1
 101 507 l 1
 259 132 l 1
 274 83 l 1
 240 22 l 1
 21 507 l 1
144 -192 m 0
 245 40 l 1
 272 83 l 1
 285 132 l 1
 428 507 l 1
 510 507 l 1
 218 -192 l 0
 144 -192 l 0
EndSplineSet
Validated: 5
EndChar

StartChar: braceleft
Encoding: 123 123 91
Width: 600
Flags: W
HStem: -68 60<322.347 496> 739 60<330.312 496>
VStem: 197 72<42.9263 201.678 527.322 682.234>
LayerCount: 2
Back
SplineSet
436 747 m 5
 450 643 l 21
 369 643 322 610 322 560 c 5
 322 519 347 457 367 427 c 5
 227 376 l 5
 363 340 l 5
 340 302 325 248 325 187 c 5
 325 141 365 103 454 103 c 5
 441 -8 l 5
 301 0 213 80 213 187 c 5
 213 226 222 268 240 296 c 5
 138 334 l 13
 138 418 l 5
 248 462 l 5
 227 483 210 519 210 558 c 5
 210 689 324 739 436 747 c 5
EndSplineSet
Fore
SplineSet
418 -8 m 1
 496 -8 l 1
 496 -68 l 1
 418 -68 l 1
 418 -8 l 1
418 799 m 5
 496 799 l 5
 496 739 l 5
 418 739 l 5
 418 799 l 5
106 395 m 1
 244 482 l 1
 226 510 197 566 197 605 c 0
 197 723 292 799 418 799 c 5
 418 739 l 5
 329 739 269 694 269 605 c 0
 269 564 289 523 310 494 c 1
 299 445 l 1
 165 364 l 1
 299 284 l 1
 310 235 l 1
 289 206 269 165 269 124 c 0
 269 25 329 -8 418 -8 c 1
 418 -68 l 1
 285 -68 197 -4 197 124 c 0
 197 163 226 219 244 247 c 1
 106 334 l 1
 106 395 l 1
EndSplineSet
Validated: 5
EndChar

StartChar: bar
Encoding: 124 124 92
Width: 600
Flags: W
VStem: 233 72<-64 800>
LayerCount: 2
Back
SplineSet
209 739 m 1
 329 739 l 1
 329 0 l 1
 209 0 l 1
 209 739 l 1
EndSplineSet
Fore
SplineSet
233 800 m 1
 305 800 l 1
 305 -64 l 1
 233 -64 l 1
 233 800 l 1
EndSplineSet
Validated: 1
EndChar

StartChar: braceright
Encoding: 125 125 93
Width: 600
Flags: W
VStem: 299 72<42.9263 201.678 527.322 682.234>
LayerCount: 2
Back
SplineSet
142 747 m 5
 254 739 368 689 368 558 c 5
 368 519 351 483 330 462 c 5
 440 418 l 5
 440 334 l 21
 338 296 l 5
 356 268 365 226 365 187 c 5
 365 80 277 0 137 -8 c 5
 124 103 l 5
 213 103 253 141 253 187 c 5
 253 248 238 302 215 340 c 5
 351 376 l 5
 211 427 l 5
 231 457 256 519 256 560 c 5
 256 610 209 643 128 643 c 13
 142 747 l 5
EndSplineSet
Fore
SplineSet
150 -8 m 1
 72 -8 l 1
 72 -68 l 1
 150 -68 l 1
 150 -8 l 1
150 799 m 5
 72 799 l 5
 72 739 l 5
 150 739 l 5
 150 799 l 5
462 395 m 1
 324 482 l 1
 342 510 371 566 371 605 c 0
 371 723 276 799 150 799 c 5
 150 739 l 5
 239 739 299 694 299 605 c 0
 299 564 279 523 258 494 c 1
 269 445 l 1
 403 364 l 1
 269 284 l 1
 258 235 l 1
 279 206 299 165 299 124 c 0
 299 25 239 -8 150 -8 c 1
 150 -68 l 1
 283 -68 371 -4 371 124 c 0
 371 163 342 219 324 247 c 1
 462 334 l 1
 462 395 l 1
EndSplineSet
Validated: 5
EndChar

StartChar: asciitilde
Encoding: 126 126 94
Width: 600
Flags: W
HStem: 220 64<326.567 430.555> 313 64<131.585 243.989>
LayerCount: 2
Back
SplineSet
24 259 m 1x80
 24 259 56 377 200 377 c 0x40
 273 377 317 308 386 308 c 0x80
 443 308 454 377 454 377 c 1x40
 535 335 l 1
 535 335 498 220 378 220 c 0x80
 297 220 251 289 188 289 c 0x40
 115 289 98 220 98 220 c 1
 24 259 l 1x80
EndSplineSet
Fore
SplineSet
32 259 m 5
 32 259 71 377 200 377 c 4
 273 377 317 284 386 284 c 4
 443 284 470 375 470 375 c 5
 527 335 l 29
 527 335 482 220 378 220 c 4
 297 220 251 313 188 313 c 4
 115 313 82 220 82 220 c 5
 32 259 l 5
EndSplineSet
Validated: 1
EndChar

StartChar: eacute
Encoding: 233 233 95
Width: 600
Flags: W
HStem: -8 56<201.878 377.681> 225 60<129 420> 459 56<196.608 353.084> 582 181
VStem: 57 72<131.499 225 285 379.268> 156 241
LayerCount: 2
Back
SplineSet
189 582 m 5
 156 651 l 5
 355 763 l 5
 421 669 l 5
 189 582 l 5
283 423 m 1
 190 423 160 373 160 318 c 9
 396 318 l 17
 396 377 358 423 283 423 c 1
283 531 m 1
 417 531 516 430 516 288 c 1
 516 218 l 1
 160 218 l 1
 160 140 211 104 283 104 c 1
 348 104 394 108 431 154 c 1
 507 82 l 1
 446 14 376 -8 289 -8 c 1
 153 -8 42 92 42 268 c 1
 42 432 132 531 283 531 c 1
EndSplineSet
Fore
Refer: 97 769 N 1 0 0 1 260 -165 2
Refer: 1 101 N 1 0 0 1 0 0 3
EndChar

StartChar: gravecomb
Encoding: 768 768 96
Width: 600
Flags: W
HStem: 747 181
VStem: -102 241
LayerCount: 2
Back
SplineSet
106 747 m 5
 -126 834 l 5
 -60 928 l 5
 139 816 l 5
 106 747 l 5
EndSplineSet
Fore
SplineSet
106 747 m 1
 -102 868 l 1
 -60 928 l 1
 139 795 l 5
 106 747 l 1
EndSplineSet
Validated: 1
EndChar

StartChar: acutecomb
Encoding: 769 769 97
Width: 600
Flags: W
HStem: 747 181
VStem: -104 241
LayerCount: 2
Back
SplineSet
-71 747 m 5
 -104 816 l 5
 95 928 l 5
 161 834 l 5
 -71 747 l 5
EndSplineSet
Fore
SplineSet
-72 747 m 1
 -104 795 l 1
 94 928 l 1
 137 868 l 1
 -72 747 l 1
EndSplineSet
Validated: 1
EndChar

StartChar: uni0302
Encoding: 770 770 98
Width: 600
Flags: W
HStem: 747 181
VStem: -144 320
LayerCount: 2
Back
SplineSet
-160 795 m 1
 -32 928 l 1
 32 928 l 25
 160 795 l 1
 88 747 l 1
 0 840 l 5
 -88 747 l 1
 -160 795 l 1
EndSplineSet
Fore
SplineSet
-144 795 m 29
 -16 928 l 5
 48 928 l 29
 176 795 l 29
 136 747 l 29
 16 864 l 29
 -104 747 l 29
 -144 795 l 29
EndSplineSet
Validated: 1
EndChar

StartChar: agrave
Encoding: 224 224 100
Width: 600
Flags: W
HStem: -8 60<175.191 338.098> 0 21G<414.897 475> 240 60<178.302 403> 455 60<191.36 356.699> 582 181
VStem: 69 72<83.5006 208.178> 144 241 403 72<114.663 240 300 405.265> 419 56<0 34.944>
LayerCount: 2
Back
SplineSet
352 582 m 5
 120 669 l 5
 186 763 l 5
 385 651 l 5
 352 582 l 5
405 100 m 5x7a
 536 100 l 5
 536 0 l 5
 405 0 l 5
 405 100 l 5x7a
351 232 m 5xbc
 329 239 304 243 278 243 c 4
 198 243 153 203 153 154 c 5
 153 121 179 100 234 100 c 5
 299 100 351 129 351 190 c 5
 351 232 l 5xbc
279 331 m 5
 304 331 329 328 351 321 c 5
 351 332 l 5xbc
 351 380 329 428 251 428 c 5
 195 428 148 415 122 396 c 5
 69 477 l 5
 104 504 170 531 252 531 c 5
 399 531 471 432 471 294 c 5
 471 0 l 5x7a
 351 0 l 5x7c
 351 59 l 5
 335 23 278 -8 219 -8 c 5
 100 -8 36 53 36 149 c 5
 36 261 139 331 279 331 c 5
EndSplineSet
Fore
Refer: 96 768 N 1 0 0 1 246 -165 2
Refer: 0 97 N 1 0 0 1 0 0 3
Validated: 1
EndChar

StartChar: Egrave
Encoding: 200 200 102
Width: 600
Flags: W
HStem: 0 60<150 494> 362 64<150 418> 679 60<150 494> 798 181
VStem: 174 241
LayerCount: 2
Back
SplineSet
382 798 m 5
 150 885 l 5
 216 979 l 5
 415 867 l 5
 382 798 l 5
202 450 m 1xf0
 438 450 l 5
 438 338 l 5
 202 338 l 1
 202 450 l 1xf0
202 120 m 1
 514 120 l 5
 514 0 l 5xe8
 202 0 l 1
 202 120 l 1
202 739 m 1xf0
 514 739 l 5
 514 619 l 5xe8
 202 619 l 1
 202 739 l 1xf0
74 739 m 1xf0
 202 739 l 1
 202 0 l 1
 74 0 l 1
 74 739 l 1xf0
EndSplineSet
Fore
Refer: 96 768 N 1 0 0 1 276 51 2
Refer: 58 69 N 1 0 0 1 0 0 3
Validated: 5
EndChar

StartChar: Eacute
Encoding: 201 201 103
Width: 600
Flags: W
HStem: 0 60<150 494> 362 64<150 418> 679 60<150 494> 798 181
VStem: 174 241
LayerCount: 2
Back
SplineSet
207 798 m 5
 174 867 l 5
 373 979 l 5
 439 885 l 5
 207 798 l 5
202 450 m 1xf0
 438 450 l 5
 438 338 l 5
 202 338 l 1
 202 450 l 1xf0
202 120 m 1
 514 120 l 5
 514 0 l 5xe8
 202 0 l 1
 202 120 l 1
202 739 m 1xf0
 514 739 l 5
 514 619 l 5xe8
 202 619 l 1
 202 739 l 1xf0
74 739 m 1xf0
 202 739 l 1
 202 0 l 1
 74 0 l 1
 74 739 l 1xf0
EndSplineSet
Fore
Refer: 97 769 N 1 0 0 1 278 51 2
Refer: 58 69 N 1 0 0 1 0 0 3
Validated: 5
EndChar

StartChar: Igrave
Encoding: 204 204 104
Width: 600
Flags: HW
HStem: 0 60<81 469> 679 60<81 469> 798 181
VStem: 154 241 241 72<0 739>
LayerCount: 2
Back
SplineSet
362 798 m 5
 130 885 l 5
 196 979 l 5
 395 867 l 5
 362 798 l 5
73 112 m 5
 477 112 l 1
 477 0 l 1
 73 0 l 5
 73 112 l 5
73 739 m 5
 477 739 l 1
 477 627 l 1
 73 627 l 5
 73 739 l 5
213 739 m 1
 341 739 l 1
 341 0 l 1
 213 0 l 1
 213 739 l 1
EndSplineSet
Fore
Refer: 96 768 N 1 0 0 1 256 51 2
Refer: 62 73 N 1 0 0 1 0 0 3
EndChar

StartChar: Iacute
Encoding: 205 205 105
Width: 600
Flags: HW
HStem: 0 60<81 469> 679 60<81 469> 798 181
VStem: 154 241 241 72<0 739>
LayerCount: 2
Back
SplineSet
187 798 m 5
 154 867 l 5
 353 979 l 5
 419 885 l 5
 187 798 l 5
73 112 m 5
 477 112 l 1
 477 0 l 1
 73 0 l 5
 73 112 l 5
73 739 m 5
 477 739 l 1
 477 627 l 1
 73 627 l 5
 73 739 l 5
213 739 m 1
 341 739 l 1
 341 0 l 1
 213 0 l 1
 213 739 l 1
EndSplineSet
Fore
Refer: 97 769 N 1 0 0 1 258 51 2
Refer: 62 73 N 1 0 0 1 0 0 3
EndChar

StartChar: Ograve
Encoding: 210 210 106
Width: 600
Flags: W
HStem: -8 60<208.413 357.481> 687 60<208.413 357.481> 798 181
VStem: 41 72<187.25 553.765> 162 241 452 73<187.25 553.765>
LayerCount: 2
Back
SplineSet
370 798 m 5
 138 885 l 5
 204 979 l 5
 403 867 l 5
 370 798 l 5
149 367 m 4
 149 169 205 112 279 112 c 4
 353 112 408 169 408 367 c 4
 408 574 353 627 279 627 c 4
 205 627 149 574 149 367 c 4
21 369 m 4
 21 660 156 747 279 747 c 4
 402 747 529 660 529 369 c 4
 529 87 402 -8 279 -8 c 4
 156 -8 21 87 21 369 c 4
EndSplineSet
Fore
Refer: 96 768 N 1 0 0 1 264 51 2
Refer: 68 79 N 1 0 0 1 0 0 3
Validated: 1
EndChar

StartChar: Oacute
Encoding: 211 211 107
Width: 600
Flags: W
HStem: -8 60<208.413 357.481> 687 60<208.413 357.481> 798 181
VStem: 41 72<187.25 553.765> 162 241 452 73<187.25 553.765>
LayerCount: 2
Back
SplineSet
195 798 m 5
 162 867 l 5
 361 979 l 5
 427 885 l 5
 195 798 l 5
149 367 m 4
 149 169 205 112 279 112 c 4
 353 112 408 169 408 367 c 4
 408 574 353 627 279 627 c 4
 205 627 149 574 149 367 c 4
21 369 m 4
 21 660 156 747 279 747 c 4
 402 747 529 660 529 369 c 4
 529 87 402 -8 279 -8 c 4
 156 -8 21 87 21 369 c 4
EndSplineSet
Fore
Refer: 97 769 N 1 0 0 1 266 51 2
Refer: 68 79 N 1 0 0 1 0 0 3
Validated: 1
EndChar

StartChar: Ugrave
Encoding: 217 217 108
Width: 600
Flags: W
HStem: -8 60<192.08 352.476> 719 20G<50 122 424 496> 798 181
VStem: 50 72<131.31 739> 186 241 424 72<135.438 739>
LayerCount: 2
Back
SplineSet
422 798 m 5
 190 885 l 5
 256 979 l 5
 455 867 l 5
 422 798 l 5
79 739 m 5
 207 739 l 5
 207 227 l 5
 207 160 240 112 306 112 c 4
 372 112 405 160 405 227 c 5
 405 739 l 5
 533 739 l 5
 533 225 l 5
 533 81 418 -8 302 -8 c 4
 188 -8 79 81 79 227 c 5
 79 739 l 5
EndSplineSet
Fore
Refer: 96 768 N 1 0 0 1 288 51 2
Refer: 74 85 N 1 0 0 1 0 0 3
Validated: 1
EndChar

StartChar: Uacute
Encoding: 218 218 109
Width: 600
Flags: W
HStem: -8 60<192.08 352.476> 719 20G<50 122 424 496> 798 181
VStem: 50 72<131.31 739> 186 241 424 72<135.438 739>
LayerCount: 2
Back
SplineSet
247 798 m 5
 214 867 l 5
 413 979 l 5
 479 885 l 5
 247 798 l 5
79 739 m 5
 207 739 l 5
 207 227 l 5
 207 160 240 112 306 112 c 4
 372 112 405 160 405 227 c 5
 405 739 l 5
 533 739 l 5
 533 225 l 5
 533 81 418 -8 302 -8 c 4
 188 -8 79 81 79 227 c 5
 79 739 l 5
EndSplineSet
Fore
Refer: 97 769 N 1 0 0 1 290 51 2
Refer: 74 85 N 1 0 0 1 0 0 3
Validated: 1
EndChar

StartChar: aacute
Encoding: 225 225 110
Width: 600
Flags: W
HStem: -8 60<175.191 338.098> 0 21G<414.897 475> 240 60<178.302 403> 455 60<191.36 356.699> 582 181
VStem: 69 72<83.5006 208.178> 144 241 403 72<114.663 240 300 405.265> 419 56<0 34.944>
LayerCount: 2
Back
SplineSet
177 582 m 5
 144 651 l 5
 343 763 l 5
 409 669 l 5
 177 582 l 5
405 100 m 5x7a
 536 100 l 5
 536 0 l 5
 405 0 l 5
 405 100 l 5x7a
351 232 m 5xbc
 329 239 304 243 278 243 c 4
 198 243 153 203 153 154 c 5
 153 121 179 100 234 100 c 5
 299 100 351 129 351 190 c 5
 351 232 l 5xbc
279 331 m 5
 304 331 329 328 351 321 c 5
 351 332 l 5xbc
 351 380 329 428 251 428 c 5
 195 428 148 415 122 396 c 5
 69 477 l 5
 104 504 170 531 252 531 c 5
 399 531 471 432 471 294 c 5
 471 0 l 5x7a
 351 0 l 5x7c
 351 59 l 5
 335 23 278 -8 219 -8 c 5
 100 -8 36 53 36 149 c 5
 36 261 139 331 279 331 c 5
EndSplineSet
Fore
Refer: 97 769 N 1 0 0 1 248 -165 2
Refer: 0 97 N 1 0 0 1 0 0 3
Validated: 1
EndChar

StartChar: egrave
Encoding: 232 232 111
Width: 600
Flags: W
HStem: -8 56<201.878 377.681> 225 60<129 420> 459 56<196.608 353.084> 582 181
VStem: 57 72<131.499 225 285 379.268> 156 241
LayerCount: 2
Back
SplineSet
364 582 m 5
 132 669 l 5
 198 763 l 5
 397 651 l 5
 364 582 l 5
283 423 m 1
 190 423 160 373 160 318 c 9
 396 318 l 17
 396 377 358 423 283 423 c 1
283 531 m 1
 417 531 516 430 516 288 c 1
 516 218 l 1
 160 218 l 1
 160 140 211 104 283 104 c 1
 348 104 394 108 431 154 c 1
 507 82 l 1
 446 14 376 -8 289 -8 c 1
 153 -8 42 92 42 268 c 1
 42 432 132 531 283 531 c 1
EndSplineSet
Fore
Refer: 96 768 N 1 0 0 1 258 -165 2
Refer: 1 101 N 1 0 0 1 0 0 3
EndChar

StartChar: igrave
Encoding: 236 236 112
Width: 600
Flags: W
HStem: 0 60<296 508> 42 18<224 296> 447 33<224 296> 447 60<60 224> 582 181
VStem: 120 241 224 72<60 480>
LayerCount: 2
Back
SplineSet
312 582 m 5
 80 669 l 5
 146 763 l 5
 345 651 l 5
 312 582 l 5
160 187 m 5xe0
 160 523 l 5xd0
 288 523 l 5
 288 197 l 5
 288 147 309 104 368 104 c 5
 397 104 430 117 447 142 c 5
 536 69 l 5
 500 24 436 -8 369 -8 c 5
 236 -8 160 67 160 187 c 5xe0
40 523 m 5
 280 523 l 5
 280 419 l 5
 40 419 l 5
 40 523 l 5
EndSplineSet
Fore
Refer: 96 768 S 1 0 0 1 222 -165 2
Refer: 133 305 N 1 0 0 1 0 0 3
Validated: 5
EndChar

StartChar: iacute
Encoding: 237 237 113
Width: 600
Flags: W
HStem: 0 60<296 508> 42 18<224 296> 447 33<224 296> 447 60<60 224> 582 181
VStem: 120 241 224 72<60 480>
LayerCount: 2
Back
SplineSet
137 582 m 5
 104 651 l 5
 303 763 l 5
 369 669 l 5
 137 582 l 5
160 187 m 5xe0
 160 523 l 5xd0
 288 523 l 5
 288 197 l 5
 288 147 309 104 368 104 c 5
 397 104 430 117 447 142 c 5
 536 69 l 5
 500 24 436 -8 369 -8 c 5
 236 -8 160 67 160 187 c 5xe0
40 523 m 5
 280 523 l 5
 280 419 l 5
 40 419 l 5
 40 523 l 5
EndSplineSet
Fore
Refer: 97 769 S 1 0 0 1 224 -165 2
Refer: 133 305 N 1 0 0 1 0 0 3
Validated: 5
EndChar

StartChar: ograve
Encoding: 242 242 114
Width: 600
Flags: W
HStem: -8 60<196.709 353.291> 455 60<196.709 353.291> 582 181
VStem: 47 72<137.059 366.143> 158 241 431 72<136.707 365.778>
LayerCount: 2
Back
SplineSet
366 582 m 5
 134 669 l 5
 200 763 l 5
 399 651 l 5
 366 582 l 5
158 259 m 0
 158 142 218 96 284 96 c 0
 350 96 410 142 410 259 c 4
 410 378 350 427 284 427 c 0
 218 427 158 378 158 259 c 0
38 261 m 0
 38 456 161 531 284 531 c 0
 407 531 530 456 530 261 c 4
 530 68 407 -8 284 -8 c 0
 161 -8 38 68 38 261 c 0
EndSplineSet
Fore
Refer: 96 768 N 1 0 0 1 260 -165 2
Refer: 12 111 N 1 0 0 1 0 0 3
Validated: 1
EndChar

StartChar: oacute
Encoding: 243 243 115
Width: 600
Flags: W
HStem: -8 60<196.709 353.291> 455 60<196.709 353.291> 582 181
VStem: 47 72<137.059 366.143> 158 241 431 72<136.707 365.778>
LayerCount: 2
Back
SplineSet
191 582 m 5
 158 651 l 5
 357 763 l 5
 423 669 l 5
 191 582 l 5
158 259 m 0
 158 142 218 96 284 96 c 0
 350 96 410 142 410 259 c 4
 410 378 350 427 284 427 c 0
 218 427 158 378 158 259 c 0
38 261 m 0
 38 456 161 531 284 531 c 0
 407 531 530 456 530 261 c 4
 530 68 407 -8 284 -8 c 0
 161 -8 38 68 38 261 c 0
EndSplineSet
Fore
Refer: 97 769 N 1 0 0 1 262 -165 2
Refer: 12 111 N 1 0 0 1 0 0 3
Validated: 1
EndChar

StartChar: ugrave
Encoding: 249 249 116
Width: 600
Flags: W
HStem: -8 60<184.108 338.031> 0 21G<413 472.039> 487 20G<65 137 401 473> 582 181
VStem: 65 72<100.548 507> 154 241 401 72<44.16 80 116 507> 417 55<0 35.84>
LayerCount: 2
Back
SplineSet
362 582 m 5
 130 669 l 5
 196 763 l 5
 395 651 l 5
 362 582 l 5
495 0 m 5x78
 375 0 l 5
 375 523 l 5
 496 523 l 5
 495 0 l 5x78
427 113 m 5
 409 76 358 -8 242 -8 c 0
 124 -8 52 85 52 196 c 1
 52 523 l 1
 172 523 l 1
 172 190 l 2
 172 133 219 96 270 96 c 0xb8
 336 96 375 137 375 194 c 5
 427 113 l 5
EndSplineSet
Fore
Refer: 96 768 N 1 0 0 1 256 -165 2
Refer: 87 117 N 1 0 0 1 0 0 3
Validated: 5
EndChar

StartChar: uacute
Encoding: 250 250 117
Width: 600
Flags: W
HStem: -8 60<184.108 338.031> 0 21G<413 472.039> 487 20G<65 137 401 473> 582 181
VStem: 65 72<100.548 507> 154 241 401 72<44.16 80 116 507> 417 55<0 35.84>
LayerCount: 2
Back
SplineSet
187 582 m 5
 154 651 l 5
 353 763 l 5
 419 669 l 5
 187 582 l 5
495 0 m 5x78
 375 0 l 5
 375 523 l 5
 496 523 l 5
 495 0 l 5x78
427 113 m 5
 409 76 358 -8 242 -8 c 0
 124 -8 52 85 52 196 c 1
 52 523 l 1
 172 523 l 1
 172 190 l 2
 172 133 219 96 270 96 c 0xb8
 336 96 375 137 375 194 c 5
 427 113 l 5
EndSplineSet
Fore
Refer: 97 769 N 1 0 0 1 258 -165 2
Refer: 87 117 N 1 0 0 1 0 0 3
Validated: 5
EndChar

StartChar: yacute
Encoding: 253 253 118
Width: 600
Flags: W
HStem: 487 20G<21 109.427 420.373 510> 582 181
VStem: 146 241
LayerCount: 2
Back
SplineSet
203 582 m 5
 170 651 l 5
 369 763 l 5
 435 669 l 5
 203 582 l 5
3 523 m 5
 144 523 l 5
 338 0 l 1
 241 0 l 1
 3 523 l 5
399 523 m 9
 525 523 l 25
 335 -28 l 0
 301 -117 242 -192 141 -192 c 1
 44 -192 l 1
 44 -80 l 17
 140 -80 l 0
 178 -80 206 -56 224 -8 c 0
 399 523 l 9
EndSplineSet
Fore
Refer: 97 769 N 1 0 0 1 250 -165 2
Refer: 90 121 N 1 0 0 1 0 0 3
Validated: 5
EndChar

StartChar: Cacute
Encoding: 262 262 119
Width: 600
Flags: W
HStem: -8 60<217.292 384.253> 687 60<214.609 376.928> 798 181
VStem: 44 72<194.423 553.335> 202 241
LayerCount: 2
Back
SplineSet
235 798 m 5
 202 867 l 5
 401 979 l 5
 467 885 l 5
 235 798 l 5
325 -8 m 1
 117 -8 33 154 33 397 c 1
 33 605 156 747 322 747 c 1
 438 747 520 691 553 643 c 5
 445 574 l 5
 420 610 371 627 323 627 c 1
 220 627 164 531 161 397 c 1
 161 226 206 113 325 112 c 1
 388 112 435 139 463 192 c 5
 563 115 l 5
 528 48 432 -8 325 -8 c 1
EndSplineSet
Fore
Refer: 97 769 N 1 0 0 1 306 51 2
Refer: 56 67 N 1 0 0 1 0 0 3
Validated: 1
EndChar

StartChar: cacute
Encoding: 263 263 120
Width: 600
Flags: W
HStem: -8 60<207.432 380.948> 455 60<207.496 380.477> 582 181
VStem: 57 72<135.107 366.651> 196 241
LayerCount: 2
Back
SplineSet
229 582 m 5
 196 651 l 5
 395 763 l 5
 461 669 l 5
 229 582 l 5
317 531 m 1
 397 531 478 504 528 447 c 1
 446 371 l 1
 413 408 366 419 320 419 c 1
 225 419 171 354 171 257 c 1
 171 164 230 104 316 104 c 1
 374 104 421 126 447 169 c 1
 538 101 l 1
 499 37 417 -8 313 -8 c 1
 158 -8 51 117 51 256 c 1
 51 390 150 531 317 531 c 1
EndSplineSet
Fore
Refer: 97 769 N 1 0 0 1 300 -165 2
Refer: 13 99 N 1 0 0 1 0 0 3
Validated: 1
EndChar

StartChar: Acircumflex
Encoding: 194 194 121
Width: 600
Flags: HW
HStem: 0 21G<49 124.115 448.885 524> 180 60<139 447> 719 20G<234.831 338.169> 800 181
VStem: 49 70<0 27.7338> 126 320 454 70<0 27.7338>
LayerCount: 2
Back
SplineSet
114 846 m 1
 242 979 l 1
 306 979 l 25
 434 846 l 1
 362 798 l 1
 274 891 l 5
 186 798 l 1
 114 846 l 1
128 268 m 1
 436 268 l 1
 436 156 l 1
 128 156 l 1
 128 268 l 1
330 739 m 1
 517 0 l 1
 391 0 l 1
 230 739 l 1
 330 739 l 1
221 739 m 1
 321 739 l 1
 160 0 l 1
 34 0 l 1
 221 739 l 1
EndSplineSet
Fore
Refer: 98 770 S 1 0 0 1 270 53 2
Refer: 54 65 N 1 0 0 1 0 0 3
EndChar

StartChar: Ecircumflex
Encoding: 202 202 122
Width: 600
Flags: W
HStem: 0 60<150 494> 362 64<150 418> 679 60<150 494> 800 181
VStem: 134 320
LayerCount: 2
Back
SplineSet
134 846 m 1
 262 979 l 1
 326 979 l 25
 454 846 l 1
 382 798 l 1
 294 891 l 5
 206 798 l 1
 134 846 l 1
202 450 m 1xf0
 438 450 l 5
 438 338 l 5
 202 338 l 1
 202 450 l 1xf0
202 120 m 1
 514 120 l 5
 514 0 l 5xe8
 202 0 l 1
 202 120 l 1
202 739 m 1xf0
 514 739 l 5
 514 619 l 5xe8
 202 619 l 1
 202 739 l 1xf0
74 739 m 1xf0
 202 739 l 1
 202 0 l 1
 74 0 l 1
 74 739 l 1xf0
EndSplineSet
Fore
Refer: 98 770 S 1 0 0 1 278 53 2
Refer: 58 69 N 1 0 0 1 0 0 3
Validated: 5
EndChar

StartChar: Icircumflex
Encoding: 206 206 123
Width: 600
Flags: HW
HStem: 0 60<81 469> 679 60<81 469> 800 181
VStem: 117 320 241 72<0 739>
LayerCount: 2
Back
SplineSet
115 846 m 1
 243 979 l 1
 307 979 l 25
 435 846 l 1
 363 798 l 1
 275 891 l 5
 187 798 l 1
 115 846 l 1
73 112 m 5
 477 112 l 1
 477 0 l 1
 73 0 l 5
 73 112 l 5
73 739 m 5
 477 739 l 1
 477 627 l 1
 73 627 l 5
 73 739 l 5
213 739 m 1
 341 739 l 1
 341 0 l 1
 213 0 l 1
 213 739 l 1
EndSplineSet
Fore
Refer: 98 770 S 1 0 0 1 261 53 2
Refer: 62 73 N 1 0 0 1 0 0 3
EndChar

StartChar: Ocircumflex
Encoding: 212 212 124
Width: 600
Flags: W
HStem: -8 60<208.413 357.481> 687 60<208.413 357.481> 800 181
VStem: 41 72<187.25 553.765> 123 320 452 73<187.25 553.765>
LayerCount: 2
Back
SplineSet
123 846 m 1
 251 979 l 1
 315 979 l 25
 443 846 l 1
 371 798 l 1
 283 891 l 5
 195 798 l 1
 123 846 l 1
149 367 m 4
 149 169 205 112 279 112 c 4
 353 112 408 169 408 367 c 4
 408 574 353 627 279 627 c 4
 205 627 149 574 149 367 c 4
21 369 m 4
 21 660 156 747 279 747 c 4
 402 747 529 660 529 369 c 4
 529 87 402 -8 279 -8 c 4
 156 -8 21 87 21 369 c 4
EndSplineSet
Fore
Refer: 98 770 S 1 0 0 1 267 53 2
Refer: 68 79 N 1 0 0 1 0 0 3
Validated: 1
EndChar

StartChar: Ucircumflex
Encoding: 219 219 125
Width: 600
Flags: W
HStem: -8 60<192.08 352.476> 719 20G<50 122 424 496> 800 181
VStem: 50 72<131.31 739> 113 320 424 72<135.438 739>
LayerCount: 2
Back
SplineSet
174 846 m 1
 302 979 l 1
 366 979 l 25
 494 846 l 1
 422 798 l 1
 334 891 l 5
 246 798 l 1
 174 846 l 1
79 739 m 5
 207 739 l 5
 207 227 l 5
 207 160 240 112 306 112 c 4
 372 112 405 160 405 227 c 5
 405 739 l 5
 533 739 l 5
 533 225 l 5
 533 81 418 -8 302 -8 c 4
 188 -8 79 81 79 227 c 5
 79 739 l 5
EndSplineSet
Fore
Refer: 98 770 S 1 0 0 1 257 53 2
Refer: 74 85 N 1 0 0 1 0 0 3
Validated: 1
EndChar

StartChar: acircumflex
Encoding: 226 226 126
Width: 600
Flags: W
HStem: -8 60<175.191 338.098> 0 21G<414.897 475> 240 60<178.302 403> 455 60<191.36 356.699> 582 181
VStem: 69 72<83.5006 208.178> 105 320 403 72<114.663 240 300 405.265> 419 56<0 34.944>
LayerCount: 2
Back
SplineSet
105 630 m 1
 233 763 l 1
 297 763 l 25
 425 630 l 1
 353 582 l 1
 265 675 l 5
 177 582 l 1
 105 630 l 1
405 100 m 5x7a
 536 100 l 5
 536 0 l 5
 405 0 l 5
 405 100 l 5x7a
351 232 m 5xbc
 329 239 304 243 278 243 c 4
 198 243 153 203 153 154 c 5
 153 121 179 100 234 100 c 5
 299 100 351 129 351 190 c 5
 351 232 l 5xbc
279 331 m 5
 304 331 329 328 351 321 c 5
 351 332 l 5xbc
 351 380 329 428 251 428 c 5
 195 428 148 415 122 396 c 5
 69 477 l 5
 104 504 170 531 252 531 c 5
 399 531 471 432 471 294 c 5
 471 0 l 5x7a
 351 0 l 5x7c
 351 59 l 5
 335 23 278 -8 219 -8 c 5
 100 -8 36 53 36 149 c 5
 36 261 139 331 279 331 c 5
EndSplineSet
Fore
Refer: 98 770 S 1 0 0 1 249 -165 2
Refer: 0 97 N 1 0 0 1 0 0 3
Validated: 1
EndChar

StartChar: ecircumflex
Encoding: 234 234 127
Width: 600
Flags: W
HStem: -8 56<201.878 377.681> 225 60<129 420> 459 56<196.608 353.084> 582 181
VStem: 57 72<131.499 225 285 379.268> 117 320
LayerCount: 2
Back
SplineSet
117 630 m 1
 245 763 l 1
 309 763 l 25
 437 630 l 1
 365 582 l 1
 277 675 l 5
 189 582 l 1
 117 630 l 1
283 423 m 1
 190 423 160 373 160 318 c 9
 396 318 l 17
 396 377 358 423 283 423 c 1
283 531 m 1
 417 531 516 430 516 288 c 1
 516 218 l 1
 160 218 l 1
 160 140 211 104 283 104 c 1
 348 104 394 108 431 154 c 1
 507 82 l 1
 446 14 376 -8 289 -8 c 1
 153 -8 42 92 42 268 c 1
 42 432 132 531 283 531 c 1
EndSplineSet
Fore
Refer: 98 770 N 1 0 0 1 261 -165 2
Refer: 1 101 N 1 0 0 1 0 0 3
EndChar

StartChar: ocircumflex
Encoding: 244 244 128
Width: 600
Flags: W
HStem: -8 60<196.709 353.291> 455 60<196.709 353.291> 582 181
VStem: 47 72<137.059 366.143> 118 320 431 72<136.707 365.778>
LayerCount: 2
Back
SplineSet
118 630 m 1
 246 763 l 1
 310 763 l 25
 438 630 l 1
 366 582 l 1
 278 675 l 5
 190 582 l 1
 118 630 l 1
158 259 m 0
 158 142 218 96 284 96 c 0
 350 96 410 142 410 259 c 4
 410 378 350 427 284 427 c 0
 218 427 158 378 158 259 c 0
38 261 m 0
 38 456 161 531 284 531 c 0
 407 531 530 456 530 261 c 4
 530 68 407 -8 284 -8 c 0
 161 -8 38 68 38 261 c 0
EndSplineSet
Fore
Refer: 98 770 N 1 0 0 1 262 -165 2
Refer: 12 111 N 1 0 0 1 0 0 3
Validated: 1
EndChar

StartChar: ucircumflex
Encoding: 251 251 129
Width: 600
Flags: W
HStem: -8 60<184.108 338.031> 0 21G<413 472.039> 487 20G<65 137 401 473> 582 181
VStem: 65 72<100.548 507> 114 320 401 72<44.16 80 116 507> 417 55<0 35.84>
LayerCount: 2
Back
SplineSet
114 630 m 1
 242 763 l 1
 306 763 l 25
 434 630 l 1
 362 582 l 1
 274 675 l 5
 186 582 l 1
 114 630 l 1
495 0 m 5x78
 375 0 l 5
 375 523 l 5
 496 523 l 5
 495 0 l 5x78
427 113 m 5
 409 76 358 -8 242 -8 c 0
 124 -8 52 85 52 196 c 1
 52 523 l 1
 172 523 l 1
 172 190 l 2
 172 133 219 96 270 96 c 0xb8
 336 96 375 137 375 194 c 5
 427 113 l 5
EndSplineSet
Fore
Refer: 98 770 N 1 0 0 1 258 -165 2
Refer: 87 117 N 1 0 0 1 0 0 3
Validated: 5
EndChar

StartChar: icircumflex
Encoding: 238 238 130
Width: 600
Flags: W
HStem: 0 60<296 508> 42 18<224 296> 447 33<224 296> 447 60<60 224> 582 181
VStem: 80 320 224 72<60 480>
LayerCount: 2
Back
SplineSet
64 630 m 1
 192 763 l 1
 256 763 l 25
 384 630 l 1
 312 582 l 1
 224 675 l 5
 136 582 l 1
 64 630 l 1
160 187 m 5xe0
 160 523 l 5xd0
 288 523 l 5
 288 197 l 5
 288 147 309 104 368 104 c 5
 397 104 430 117 447 142 c 5
 536 69 l 5
 500 24 436 -8 369 -8 c 5
 236 -8 160 67 160 187 c 5xe0
40 523 m 5
 280 523 l 5
 280 419 l 5
 40 419 l 5
 40 523 l 5
EndSplineSet
Fore
Refer: 98 770 S 1 0 0 1 224 -165 2
Refer: 133 305 N 1 0 0 1 0 0 3
Validated: 5
EndChar

StartChar: ccircumflex
Encoding: 265 265 132
Width: 600
Flags: W
HStem: -8 60<207.432 380.948> 455 60<207.496 380.477> 582 181
VStem: 57 72<135.107 366.651> 122 320
LayerCount: 2
Back
SplineSet
157 630 m 1
 285 763 l 1
 349 763 l 25
 477 630 l 1
 405 582 l 1
 317 675 l 5
 229 582 l 1
 157 630 l 1
317 531 m 1
 397 531 478 504 528 447 c 1
 446 371 l 1
 413 408 366 419 320 419 c 1
 225 419 171 354 171 257 c 1
 171 164 230 104 316 104 c 1
 374 104 421 126 447 169 c 1
 538 101 l 1
 499 37 417 -8 313 -8 c 1
 158 -8 51 117 51 256 c 1
 51 390 150 531 317 531 c 1
EndSplineSet
Fore
Refer: 98 770 S 1 0 0 1 266 -165 2
Refer: 13 99 N 1 0 0 1 0 0 3
Validated: 1
EndChar

StartChar: dotlessi
Encoding: 305 305 133
Width: 600
Flags: W
HStem: 0 60<296 508> 42 18<224 296> 447 60<60 224> 447 33<224 296>
VStem: 224 72<60 480>
LayerCount: 2
Fore
SplineSet
224 0 m 5x88
 224 60 l 5x48
 508 60 l 5
 508 0 l 5
 296 0 l 5
 224 0 l 5x88
224 42 m 5
 224 480 l 5
 296 480 l 5x58
 296 42 l 5
 224 42 l 5
224 507 m 5x28
 296 507 l 5x28
 296 447 l 5x18
 60 447 l 5
 60 507 l 5
 224 507 l 5x28
EndSplineSet
Validated: 5
EndChar

StartChar: uni0308
Encoding: 776 776 134
Width: 600
Flags: W
HStem: 784 102<-143.544 -60.4557 60.4557 143.544>
VStem: -153 102<793.456 876.544> 51 102<793.456 876.544>
LayerCount: 2
Back
SplineSet
51 832 m 0
 51 871 84 904 123 904 c 0
 162 904 195 871 195 832 c 0
 195 793 162 760 123 760 c 0
 84 760 51 793 51 832 c 0
-195 832 m 0
 -195 871 -162 904 -123 904 c 0
 -84 904 -51 871 -51 832 c 0
 -51 793 -84 760 -123 760 c 0
 -162 760 -195 793 -195 832 c 0
EndSplineSet
Fore
SplineSet
51 835 m 4
 51 863 74 886 102 886 c 4
 130 886 153 863 153 835 c 4
 153 807 130 784 102 784 c 4
 74 784 51 807 51 835 c 4
-153 835 m 4
 -153 863 -130 886 -102 886 c 4
 -74 886 -51 863 -51 835 c 4
 -51 807 -74 784 -102 784 c 4
 -130 784 -153 807 -153 835 c 4
EndSplineSet
Validated: 1
EndChar

StartChar: Adieresis
Encoding: 196 196 135
Width: 600
Flags: HW
HStem: 0 21G<49 124.115 448.885 524> 180 60<139 447> 719 20G<234.831 338.169> 843 102<130.456 213.544 334.456 417.544>
VStem: 49 70<0 27.7338> 121 102<852.456 935.544> 325 102<852.456 935.544> 454 70<0 27.7338>
LayerCount: 2
Back
SplineSet
325 891 m 0
 325 930 358 963 397 963 c 0
 436 963 469 930 469 891 c 0
 469 852 436 819 397 819 c 0
 358 819 325 852 325 891 c 0
79 891 m 0
 79 930 112 963 151 963 c 0
 190 963 223 930 223 891 c 0
 223 852 190 819 151 819 c 0
 112 819 79 852 79 891 c 0
128 268 m 1
 436 268 l 1
 436 156 l 1
 128 156 l 1
 128 268 l 1
330 739 m 1
 517 0 l 1
 391 0 l 1
 230 739 l 1
 330 739 l 1
221 739 m 1
 321 739 l 1
 160 0 l 1
 34 0 l 1
 221 739 l 1
EndSplineSet
Fore
Refer: 134 776 N 1 0 0 1 274 59 2
Refer: 54 65 N 1 0 0 1 0 0 3
EndChar

StartChar: Udieresis
Encoding: 220 220 139
Width: 600
Flags: W
HStem: -8 60<192.08 352.476> 719 20G<50 122 424 496> 843 102<162.456 245.544 366.456 449.544>
VStem: 50 72<131.31 739> 153 102<852.456 935.544> 357 102<852.456 935.544> 424 72<135.438 739>
LayerCount: 2
Back
SplineSet
385 891 m 0
 385 930 418 963 457 963 c 0
 496 963 529 930 529 891 c 0
 529 852 496 819 457 819 c 0
 418 819 385 852 385 891 c 0
139 891 m 0
 139 930 172 963 211 963 c 0
 250 963 283 930 283 891 c 0
 283 852 250 819 211 819 c 0
 172 819 139 852 139 891 c 0
79 739 m 5
 207 739 l 5
 207 227 l 5
 207 160 240 112 306 112 c 4
 372 112 405 160 405 227 c 5
 405 739 l 5
 533 739 l 5
 533 225 l 5
 533 81 418 -8 302 -8 c 4
 188 -8 79 81 79 227 c 5
 79 739 l 5
EndSplineSet
Fore
Refer: 134 776 N 1 0 0 1 306 59 2
Refer: 74 85 N 1 0 0 1 0 0 3
Validated: 1
EndChar

StartChar: Yacute
Encoding: 221 221 140
Width: 600
Flags: W
HStem: 0 21G<231 303> 302 12<231 298> 719 20G<24 117.879 416.121 510> 798 181
VStem: 146 241 231 72<0 314>
LayerCount: 2
Back
SplineSet
179 798 m 5
 146 867 l 5
 345 979 l 5
 411 885 l 5
 179 798 l 5
203 302 m 1
 331 302 l 1
 331 0 l 1
 203 0 l 1
 203 302 l 1
219 302 m 1
 405 739 l 5
 526 739 l 5
 331 302 l 1
 219 302 l 1
8 739 m 1
 129 739 l 1
 313 302 l 1
 203 302 l 1
 8 739 l 1
EndSplineSet
Fore
Refer: 97 769 N 1 0 0 1 250 51 2
Refer: 78 89 N 1 0 0 1 0 0 3
Validated: 5
EndChar

StartChar: ydieresis
Encoding: 255 255 146
Width: 600
Flags: W
HStem: 487 20G<21 109.427 420.373 510> 627 102<122.456 205.544 326.456 409.544>
VStem: 113 102<636.456 719.544> 317 102<636.456 719.544>
LayerCount: 2
Back
SplineSet
341 675 m 0
 341 714 374 747 413 747 c 0
 452 747 485 714 485 675 c 0
 485 636 452 603 413 603 c 0
 374 603 341 636 341 675 c 0
95 675 m 0
 95 714 128 747 167 747 c 0
 206 747 239 714 239 675 c 0
 239 636 206 603 167 603 c 0
 128 603 95 636 95 675 c 0
3 523 m 5
 144 523 l 5
 338 0 l 1
 241 0 l 1
 3 523 l 5
399 523 m 9
 525 523 l 25
 335 -28 l 0
 301 -117 242 -192 141 -192 c 1
 44 -192 l 1
 44 -80 l 17
 140 -80 l 0
 178 -80 206 -56 224 -8 c 0
 399 523 l 9
EndSplineSet
Fore
Refer: 134 776 N 1 0 0 1 266 -157 2
Refer: 90 121 N 1 0 0 1 0 0 3
Validated: 5
EndChar

StartChar: uni0327
Encoding: 807 807 147
Width: 600
Flags: W
HStem: -228 56<-88.4076 65.2831> -98 98<-36 8 22 30> -98 48<8.0146 64.5239>
VStem: -36 66<-19.5491 0> 68 72<-168.078 -102.018>
LayerCount: 2
Back
SplineSet
-36 0 m 1
 30 0 l 1
 25 -40 l 1
 25 -40 35 -34 63 -34 c 0
 102 -34 140 -64 140 -125 c 1
 140 -192 90 -228 24 -228 c 0
 -45 -228 -96 -210 -140 -181 c 1
 -100 -118 l 1
 -76 -141 -46 -148 18 -148 c 0
 43 -148 52 -136 52 -124 c 0
 52 -109 43 -98 22 -98 c 0
 -55 -98 l 1
 -36 0 l 1
EndSplineSet
Fore
SplineSet
-36 0 m 1xd8
 30 0 l 1xd8
 8 -60 l 1
 8 -60 28 -50 56 -50 c 0xb8
 102 -50 140 -81 140 -138 c 1
 140 -196 90 -228 24 -228 c 0
 -21 -228 -96 -210 -140 -181 c 1
 -112 -138 l 1
 -78 -156 -46 -172 18 -172 c 0
 54 -172 68 -159 68 -137 c 0
 68 -109 50 -98 22 -98 c 0xd8
 -55 -98 l 1xb8
 -36 0 l 1xd8
EndSplineSet
Validated: 1
EndChar

StartChar: Ccedilla
Encoding: 199 199 148
Width: 600
Flags: W
HStem: -229 56<213.592 367.283> -99 48<310.015 366.524> -99 98<266 310 324 332> -8 60<217.292 384.253> 687 60<214.609 376.928>
VStem: 44 72<194.423 553.335> 266 66<-20.5491 -1> 370 72<-169.078 -103.018>
LayerCount: 2
Back
SplineSet
266 -1 m 1
 332 -1 l 1
 327 -41 l 1
 327 -41 337 -35 365 -35 c 0
 404 -35 442 -65 442 -126 c 1
 442 -193 392 -229 326 -229 c 0
 257 -229 206 -211 162 -182 c 1
 202 -119 l 1
 226 -142 256 -149 320 -149 c 0
 345 -149 354 -137 354 -125 c 0
 354 -110 345 -99 324 -99 c 0
 247 -99 l 1
 266 -1 l 1
325 -8 m 1
 117 -8 33 154 33 397 c 1
 33 605 156 747 322 747 c 1
 438 747 520 691 553 643 c 5
 445 574 l 5
 420 610 371 627 323 627 c 1
 220 627 164 531 161 397 c 1
 161 226 206 113 325 112 c 1
 388 112 435 139 463 192 c 5
 563 115 l 5
 528 48 432 -8 325 -8 c 1
EndSplineSet
Fore
Refer: 147 807 N 1 0 0 1 302 -1 2
Refer: 56 67 N 1 0 0 1 0 0 3
Validated: 5
EndChar

StartChar: ccedilla
Encoding: 231 231 149
Width: 600
Flags: W
HStem: -229 56<186.592 340.283> -99 48<283.015 339.524> -99 98<239 283 297 305> -8 60<207.432 380.948> 455 60<207.496 380.477>
VStem: 57 72<135.107 366.651> 239 66<-20.5491 -1> 343 72<-169.078 -103.018>
LayerCount: 2
Back
SplineSet
257 -1 m 1
 323 -1 l 1
 318 -41 l 1
 318 -41 328 -35 356 -35 c 0
 395 -35 433 -65 433 -126 c 1
 433 -193 383 -229 317 -229 c 0
 248 -229 197 -211 153 -182 c 1
 193 -119 l 1
 217 -142 247 -149 311 -149 c 0
 336 -149 345 -137 345 -125 c 0
 345 -110 336 -99 315 -99 c 0
 238 -99 l 1
 257 -1 l 1
317 531 m 1
 397 531 478 504 528 447 c 1
 446 371 l 1
 413 408 366 419 320 419 c 1
 225 419 171 354 171 257 c 1
 171 164 230 104 316 104 c 1
 374 104 421 126 447 169 c 1
 538 101 l 1
 499 37 417 -8 313 -8 c 1
 158 -8 51 117 51 256 c 1
 51 390 150 531 317 531 c 1
EndSplineSet
Fore
Refer: 147 807 N 1 0 0 1 275 -1 2
Refer: 13 99 S 1 0 0 1 0 0 3
Validated: 5
EndChar
